<svg width="17" height="15" viewBox="0 0 17 15" fill="none" xmlns="http://www.w3.org/2000/svg">
<path d="M16.0264 12.3086L9.46387 0.90625C8.97168 0.0585938 7.68652 0.03125 7.19434 0.90625L0.631836 12.3086C0.139648 13.1562 0.768555 14.25 1.78027 14.25H14.8779C15.8896 14.25 16.5186 13.1836 16.0264 12.3086ZM8.34277 9.92969C9.02637 9.92969 9.60059 10.5039 9.60059 11.1875C9.60059 11.8984 9.02637 12.4453 8.34277 12.4453C7.63184 12.4453 7.08496 11.8984 7.08496 11.1875C7.08496 10.5039 7.63184 9.92969 8.34277 9.92969ZM7.13965 5.41797C7.1123 5.22656 7.27637 5.0625 7.46777 5.0625H9.19043C9.38184 5.0625 9.5459 5.22656 9.51855 5.41797L9.32715 9.13672C9.2998 9.32812 9.16309 9.4375 8.99902 9.4375H7.65918C7.49512 9.4375 7.3584 9.32812 7.33105 9.13672L7.13965 5.41797Z" fill="currentColor"/>
</svg>
