<svg width="89" height="88" viewBox="0 0 89 88" fill="none" xmlns="http://www.w3.org/2000/svg">
<path d="M2.93532 42.3145C6.41463 41.7677 5.48382 39.3071 4.36489 37.8491C4.21745 37.657 4.21016 37.3882 4.36145 37.1991L5.92778 35.2415C6.10568 35.0191 6.43439 34.9939 6.66014 35.1675C9.54136 37.3825 10.7307 34.8839 11.0391 33.127C11.0836 32.874 11.2967 32.6797 11.5536 32.6797H14.4234C14.6782 32.6797 14.8899 32.8745 14.9353 33.1251C15.4873 36.1703 17.8684 35.492 19.3275 34.5645C19.5521 34.4217 19.8515 34.4554 20.0219 34.6599L22.1399 37.2012C22.2962 37.3886 22.2912 37.6616 22.1434 37.8557C20.1862 40.426 22.1079 41.7974 23.6392 42.2692C23.8631 42.3383 24.0262 42.5387 24.0262 42.7731V45.1502C24.0262 45.4071 23.829 45.6203 23.5752 45.6602C20.1613 46.1967 20.9933 48.5759 22.0829 50.0424C22.2527 50.271 22.2248 50.5974 22.0024 50.7753L19.9797 52.3932C19.8213 52.5199 19.6009 52.5362 19.4202 52.4439C16.1544 50.7747 15.0826 52.7076 14.9005 54.2579C14.8682 54.5321 14.6471 54.7565 14.3709 54.7565H11.6011C11.325 54.7565 11.1037 54.5292 11.0835 54.2538C10.8604 51.2136 8.56767 51.6475 7.13691 52.4047C6.93115 52.5136 6.67613 52.4861 6.5115 52.3215L4.91988 50.7301C4.75521 50.5655 4.72827 50.309 4.84197 50.1058C6.43171 47.2648 4.5197 46.3279 2.9833 46.1675C2.70865 46.1388 2.48438 45.9173 2.48438 45.6412V42.8245C2.48438 42.5676 2.68155 42.3544 2.93532 42.3145Z" stroke="#63666A" stroke-width="2.5"/>
<path d="M65.4119 42.2911C68.8912 41.7443 67.9604 39.2837 66.8415 37.8257C66.694 37.6336 66.6867 37.3647 66.838 37.1756L68.4043 35.218C68.5822 34.9957 68.9109 34.9705 69.1367 35.144C72.0179 37.3591 73.2072 34.8605 73.5157 33.1035C73.5601 32.8505 73.7733 32.6562 74.0301 32.6562H76.9C77.1547 32.6562 77.3665 32.851 77.4119 33.1017C77.9639 36.1469 80.3449 35.4685 81.8041 34.5411C82.0287 34.3983 82.3281 34.432 82.4985 34.6365L84.6165 37.1777C84.7727 37.3652 84.7678 37.6381 84.62 37.8323C82.6628 40.4026 84.5844 41.7739 86.1157 42.2458C86.3397 42.3148 86.5027 42.5153 86.5027 42.7496V45.1268C86.5027 45.3837 86.3056 45.5969 86.0518 45.6367C82.6378 46.1732 83.4699 48.5524 84.5594 50.0189C84.7293 50.2476 84.7014 50.574 84.479 50.7519L82.4563 52.3698C82.2979 52.4965 82.0774 52.5128 81.8968 52.4205C78.631 50.7513 77.5592 52.6841 77.377 54.2344C77.3448 54.5087 77.1236 54.7331 76.8475 54.7331H74.0777C73.8015 54.7331 73.5803 54.5058 73.5601 54.2304C73.337 51.1901 71.0442 51.6241 69.6135 52.3812C69.4077 52.4901 69.1527 52.4627 68.9881 52.2981L67.3964 50.7067C67.2318 50.5421 67.2048 50.2855 67.3185 50.0823C68.9083 47.2413 66.9963 46.3045 65.4599 46.144C65.1852 46.1153 64.9609 45.8939 64.9609 45.6177V42.801C64.9609 42.5441 65.1581 42.331 65.4119 42.2911Z" stroke="#63666A" stroke-width="2.5"/>
<path d="M30.4048 41.8695C35.3459 41.1714 33.9421 37.7031 32.3877 35.7437C32.2372 35.554 32.2306 35.2851 32.3819 35.096L34.6838 32.2191C34.8617 31.9968 35.1892 31.9696 35.4118 32.1472C39.4656 35.3805 41.0789 31.7587 41.4543 29.3701C41.4942 29.1164 41.7078 28.9219 41.9646 28.9219H46.1217C46.3765 28.9219 46.5888 29.1147 46.6294 29.3662C47.3332 33.7254 50.7178 32.6645 52.683 31.3624C52.9049 31.2153 53.2048 31.2492 53.3752 31.4537L56.4128 35.0981C56.569 35.2856 56.5646 35.5589 56.4137 35.7507C53.584 39.3471 56.3676 41.2244 58.4625 41.8249C58.6877 41.8894 58.8507 42.0905 58.8507 42.3248V45.8051C58.8507 46.062 58.6533 46.2759 58.399 46.3119C53.5265 47.0003 54.824 50.3825 56.3515 52.3553C56.5259 52.5805 56.4977 52.9071 56.2752 53.085L53.3331 55.4384C53.1746 55.5651 52.9519 55.5806 52.7721 55.4866C48.1912 53.0928 46.7777 55.9193 46.5914 58.0384C46.5672 58.3135 46.3454 58.5372 46.0692 58.5372H42.0121C41.736 58.5372 41.5139 58.312 41.4994 58.0362C41.2707 53.6798 38.0093 54.3786 36.075 55.4467C35.8712 55.5593 35.616 55.5313 35.4514 55.3667L33.1242 53.0398C32.9595 52.8752 32.933 52.6169 33.0493 52.4152C35.3624 48.4056 32.558 47.1643 30.452 46.9997C30.1767 46.9782 29.9531 46.7561 29.9531 46.48V42.3762C29.9531 42.1193 30.1505 41.9054 30.4048 41.8695Z" stroke="#63666A" stroke-width="2.5"/>
<path d="M11.1006 65.8095L10.0235 63.3865L1.94531 66.0788L11.1006 86.0018L18.6402 82.771L16.9658 79.0041M11.1006 65.8095L21.3329 60.6942C24.0257 59.6195 24.995 59.4018 28.8726 60.6942L39.1049 64.4657C43.4133 66.0811 45.0289 73.0811 36.9507 72.0042L26.1798 68.7734M11.1006 65.8095L16.9658 79.0041M42.3362 67.158L55.7998 63.9273C60.6467 62.3119 66.5707 66.0811 58.4926 71.4657L40.7206 78.4657C38.9254 79.1836 34.3657 80.1888 30.4882 78.4657C28.2948 77.3896 22.5196 75.9907 16.9658 79.0041" stroke="#63666A" stroke-width="2.5"/>
<path d="M78.0947 22.1905L79.1718 24.6135L87.25 21.9212L78.0947 1.99824L70.5551 5.229L72.2295 8.99586M78.0947 22.1905L67.8624 27.3058C65.1696 28.3805 64.2003 28.5982 60.3227 27.3058L50.0904 23.5343C45.782 21.9189 44.1664 14.9189 52.2446 15.9958L63.0155 19.2266M78.0947 22.1905L72.2295 8.99586M46.8591 20.842L33.3955 24.0727C28.5486 25.6881 22.6246 21.9189 30.7028 16.5343L48.4747 9.53432C50.2699 8.81637 54.8296 7.81125 58.7071 9.53432C60.9005 10.6104 66.6757 12.0093 72.2295 8.99586" stroke="#63666A" stroke-width="2.5"/>
<circle cx="44.4933" cy="43.4542" r="5.75109" stroke="#63666A" stroke-width="2.5"/>
<circle cx="13.2532" cy="43.4641" r="3.59691" stroke="#63666A" stroke-width="2.5"/>
<circle cx="75.7297" cy="43.425" r="3.59691" stroke="#63666A" stroke-width="2.5"/>
</svg>
