<svg width="86" height="88" viewBox="0 0 86 88" fill="none" xmlns="http://www.w3.org/2000/svg">
<path d="M2.0807 16.0427H26.1029M1.54688 2V21.7639H26.6367V2H1.54688Z" stroke="#63666A" stroke-width="2.5"/>
<path d="M10.2734 22.8594V26.1534" stroke="#63666A" stroke-width="2.5"/>
<path d="M17.9141 22.8594V26.1534" stroke="#63666A" stroke-width="2.5"/>
<path d="M5.91406 27.25L22.277 27.25" stroke="#63666A" stroke-width="2.5"/>
<path d="M36.4517 21.7639H42.9969M49.542 21.7639H42.9969M42.9969 21.7639V27.8028M42.9969 27.8028H50.0875V2H35.9062V27.8028H42.9969ZM59.3598 10.2349H84.4496M84.4496 10.2349V27.2538H58.8144V2H84.4496V10.2349Z" stroke="#63666A" stroke-width="2.5"/>
<path d="M14.0938 32.7443V39.3323H71.364V32.1953" stroke="#63666A" stroke-width="2.5"/>
<path d="M43 32.1953V46.4692" stroke="#63666A" stroke-width="2.5"/>
<path d="M18.4531 55.2578V81.6096C20.0894 84.9036 41.9067 86.0016 45.1792 81.6096M46.2701 55.8068C41.3612 58.3688 29.0345 61.9556 18.9986 55.8068M49.5427 65.1397L52.8153 62.9438V59.1008H58.815V62.9438L62.633 65.1397L65.9056 62.9438L68.6328 67.8847L65.9056 70.0807V74.4727L68.6328 76.6687L65.3602 81.0606L62.633 79.4136L59.3605 81.6096V86.0016H52.8153V81.6096L49.5427 79.4136L46.2701 81.6096L42.9975 76.6687L46.2701 74.4727V70.0807L42.9975 67.8847L46.2701 62.9438L49.5427 65.1397Z" stroke="#63666A" stroke-width="2.5"/>
<path d="M18.4531 55.2436C18.4531 52.1443 34.3791 48.5625 44.8949 53.6297C46.1277 54.2238 46.8155 55.5235 46.8155 56.8919V62.9315" stroke="#63666A" stroke-width="2.5"/>
<path d="M19 74.4688C24.4543 76.6647 39.1809 77.7627 45.7261 74.4688" stroke="#63666A" stroke-width="2.5"/>
<path d="M19 65.6875C24.4543 67.8835 38.0901 68.4325 44.0898 66.2365" stroke="#63666A" stroke-width="2.5"/>
<path d="M67.543 4.69531C68.1673 4.69554 68.6787 5.20638 68.6787 5.84277C68.6785 6.47895 68.1671 6.98903 67.543 6.98926C66.9186 6.98926 66.4065 6.47909 66.4062 5.84277C66.4062 5.20623 66.9185 4.69531 67.543 4.69531Z" fill="#63666A" stroke="#63666A"/>
<path d="M63.1836 4.69531C63.8079 4.69554 64.3193 5.20638 64.3193 5.84277C64.3191 6.47895 63.8077 6.98903 63.1836 6.98926C62.5593 6.98926 62.0471 6.47909 62.0469 5.84277C62.0469 5.20623 62.5591 4.69531 63.1836 4.69531Z" fill="#63666A" stroke="#63666A"/>
<path d="M71.9102 4.69531C72.5345 4.69554 73.0459 5.20638 73.0459 5.84277C73.0456 6.47895 72.5343 6.98903 71.9102 6.98926C71.2858 6.98926 70.7737 6.47909 70.7734 5.84277C70.7734 5.20623 71.2857 4.69531 71.9102 4.69531Z" fill="#63666A" stroke="#63666A"/>
<path d="M56.0869 68.0312C58.4012 68.0312 60.291 69.9221 60.291 72.2715C60.2909 74.6207 58.4011 76.5107 56.0869 76.5107C53.7728 76.5106 51.883 74.6206 51.8828 72.2715C51.8828 69.9222 53.7727 68.0314 56.0869 68.0312Z" stroke="#63666A" stroke-width="2.5"/>
</svg>
