<svg xmlns="http://www.w3.org/2000/svg" id="Layer_1" data-name="Layer 1" viewBox="0 0 357.98 337.22"><defs><style>      .cls-1 {        fill: #bd302b;        stroke-width: 0px;      }    </style></defs><path class="cls-1" d="M134.68,128.23c-1.43.8-2.86,1.6-4.29,2.41-3.21,1.82-6.41,3.64-9.62,5.45-2.66,1.51-5.31,3.03-7.99,4.51-2.27,1.25-4.56,2.46-6.84,3.68-.21.11-.43.2-.65.27-1.46.47-2.36-.13-2.27-1.68.12-1.99.33-3.99.65-5.96,1.21-7.59,2.47-15.18,3.72-22.77.28-1.7.57-3.41.89-5.1.28-1.46-.27-2.65-1.24-3.63-4.47-4.52-8.97-9-13.44-13.52-2.56-2.59-5.09-5.23-7.62-7.85-.52-.53-1.02-1.09-1.46-1.68-.3-.4-.53-.88-.69-1.35-.3-.92-.03-1.41.93-1.64,1.56-.37,3.13-.76,4.71-1.01,6.51-1.03,13.03-2.01,19.54-2.99,2.17-.33,4.36-.59,6.53-.88.23-.03.47-.07.7-.11,2.66-.47,2.84-.61,3.96-3.05,3.05-6.63,6.09-13.26,9.16-19.88,1.34-2.88,2.72-5.74,4.11-8.6.31-.63.71-1.21,1.13-1.77.51-.68.86-1.36.86-2.25,0-3.89.05-7.77.05-11.66,0-8.6-.04-17.19-.06-25.79,0-1.22.09-1.32,1.22-1.32,22.45-.01,44.9-.03,67.35-.03C251.46.01,298.91,0,346.37,0c1.81,0,3.61,0,5.42.02,1.08.01,1.24.2,1.23,1.22-.04,13.03-.09,26.06-.11,39.09-.01,9.54.02,19.08.05,28.61,0,1.45.11,2.9.18,4.35.06,1.22-.08,1.38-1.27,1.38-32.93-.03-65.86-.06-98.79-.08-8.67,0-17.35.04-26.02.08-2.46.01-2.54-.23-2.55,2.52-.01,5.14-.09,10.28-.02,15.42.03,2.04-.6,3.87-1.41,5.65-1.44,3.14-2.95,6.24-4.45,9.34-.42.88-.82,1.8-1.38,2.59-.33.47-.93.83-1.49,1.03-.69.25-1.46.29-2.19.41-6.43,1.06-12.85,2.11-19.28,3.16-.46.08-.94.09-1.4.18-.65.12-1.32.22-1.95.44-1.52.52-1.87,1.56-.86,2.8,1.16,1.43,2.44,2.76,3.72,4.09,2.39,2.49,4.81,4.95,7.22,7.42,1.64,1.68,3.29,3.36,4.94,5.04.66.67,1.34,1.31,2.01,1.97.72.7.8,1.59.67,2.51-.14.97-.34,1.93-.5,2.9-.58,3.36-1.19,6.72-1.74,10.09-.64,3.91-1.25,7.83-1.82,11.75-.1.72-.02,1.48.08,2.21.08.58.53.89,1.11.8.69-.11,1.43-.17,2.04-.48,2.13-1.09,4.21-2.28,6.3-3.42,2.33-1.28,4.67-2.55,7-3.83.93-.51,1.86-1.01,2.77-1.55,1.38-.82,2.73-1.68,4.11-2.51.54-.32,1.1-.61,1.66-.87.53-.24,1.06-.18,1.58.11,1.27.71,2.55,1.38,3.81,2.1,3.2,1.83,6.38,3.7,9.58,5.51,2.46,1.39,4.94,2.74,7.44,4.05.75.39,1.6.68,2.43.85,1.15.23,1.68-.27,1.72-1.46,0-.16,0-.32-.02-.47-.52-3.57-1.04-7.14-1.58-10.71-.66-4.27-1.34-8.53-2.02-12.79-.12-.77-.25-1.55-.41-2.32-.25-1.21.06-2.15.98-3.06,2.5-2.48,4.91-5.06,7.34-7.61.29-.3.5-.67.77-1.03-.57-.46-1.12-.45-1.65-.35-1.04.21-2.07.43-3.1.7-.99.27-1.62,1.08-2.32,1.75-1.31,1.24-2.59,2.51-3.85,3.8-.6.61-1.17,1.27-1.7,1.94-.57.73-.61,1.59-.46,2.47,1.09,6.78,2.17,13.56,3.25,20.34.11.7.2,1.4.27,2.1.03.29-.03.59-.05,1.09-.64-.25-1.17-.38-1.63-.64-2.23-1.24-4.43-2.52-6.65-3.78-3.65-2.06-7.32-4.11-10.98-6.16-1.2-.67-2.36-.61-3.57.05-5.23,2.86-10.48,5.69-15.72,8.54-.69.37-1.33.83-2.02,1.21-.54.29-1.11.52-1.65.77-.54-.56-.43-1.12-.35-1.65.65-4.19,1.32-8.37,1.99-12.56.48-2.98.98-5.96,1.49-8.94.19-1.12.04-2.1-.77-2.95-.89-.94-1.76-1.89-2.67-2.82-2.99-3.05-6-6.09-9-9.12-1.18-1.2-2.38-2.38-3.58-3.56-.43-.42-.82-.84-.73-1.57.23-.07.43-.16.65-.2,5-.79,9.99-1.58,14.99-2.36,1.43-.22,2.87-.41,4.31-.64.89-.14,1.78-.31,2.65-.51.91-.21,1.47-.83,1.85-1.67,1.29-2.81,1.64-2.7,2.65-5.64.58-2.37,1.03-4.16,1.31-5.16.08-.29.26-.92.31-1.78.02-.39,0-.51,0-1.1-.01-1.11.06-1.16.08-2.54.02-1.33-.04-1.47.08-2.01.09-.4.2-.72.54-1.47.48-1.06.9-1.9,1.25-2.55,1.42-2.73,1.21-2.18,1.54-2.85.24-.49.49-.99.83-1.41.71-.91,1.97-.96,2.78-.15.27.28.53.59.7.94.69,1.36,1.36,2.73,2.01,4.12,1.38,2.95,2.74,5.9,4.1,8.85,1.32,2.85,2.63,5.69,3.95,8.54,1.13,2.45,1.33,2.62,3.98,3.06,1.82.3,3.65.52,5.47.81,3.8.6,7.6,1.2,11.39,1.83,2.01.33,4.01.72,6.02,1.11,1.82.35,2.33,1.07,1.03,2.99-1.66,2.45-3.93,4.37-6.02,6.44-.45.44-.9.88-1.32,1.34-.2.22-.34.49-.52.76.48.59,1.08.6,1.66.61,1.06.02,2.12-.02,3.18-.01,11.15.04,22.29.11,33.44.13,10.21.02,20.41,0,30.62-.02.59,0,1.18-.03,1.77-.03,1.12.01,1.21.12,1.2,1.22-.03,2.28-.08,4.55-.09,6.83-.02,16.33-.05,32.66-.05,48.98,0,5.26.06,10.52.1,15.78,0,.16,0,.31,0,.47-.03,1.18-.13,1.29-1.28,1.3-10.09.03-20.17.07-30.26.07-24.37.02-48.75.03-73.12.04-1.26,0-2.51-.01-3.77.02-.93.03-1.19.25-1.32,1.16-.1.77-.13,1.56-.13,2.35,0,16.33,0,32.65,0,48.98,0,1.53.01,3.06.02,4.59,0,.51,0,1.02.03,1.53.07,1.42.3,1.64,1.68,1.65.86,0,1.73-.01,2.59-.01,15.39,0,30.77.02,46.16.01,26.49-.01,52.99-.04,79.48-.06.75,0,1.49-.03,2.24-.04,1.23-.03,1.41.17,1.37,1.44-.05,1.73-.11,3.45-.11,5.18,0,20.96,0,41.92,0,62.88,0,1.22.03,2.43.06,3.65.03,1.41-.09,1.55-1.52,1.55-8.01,0-16.01.02-24.02.02-63.15.01-126.31.02-189.46.04-1.88,0-3.77,0-5.65.02-1.62,0-1.81-.18-1.81-1.83,0-16.41.02-32.81.02-49.22,0-20.41.02-40.83.02-61.24,0-20.33-.02-40.66-.04-60.99,0-2.08-.07-4.16-.12-6.24,0-.35-.02-.71-.08-1.05-.12-.65-.44-.93-1.07-.75-.86.24-1.76.5-2.52.95-3.53,2.11-5.47,5.16-5.45,9.38.03,6.67-.03,13.34-.02,20.02,0,15.19.03,30.38.02,45.57,0,2.59,0,5.19-.6,7.73-.78,3.27-2.02,6.34-4.04,9.06-.44.6-.83,1.24-1.29,1.82-.61.77-1.38.85-2.12.22-.32-.28-.6-.62-.85-.97-1.22-1.72-2.44-3.45-3.63-5.19-1.5-2.2-2.97-4.41-4.44-6.63-.26-.39-.44-.84-.71-1.21-2.13-2.95-3.87-6.18-6.27-8.94-.95-1.09-2-2.09-3.06-3.07-.92-.85-2.08-1.3-3.29-1.48-2.27-.34-4.55-.4-6.73.49-.86.35-1.7.82-2.42,1.4-1.71,1.35-3.01,3.04-4.08,4.96-1.41,2.51-1.27,5.07-.35,7.62.7,1.95,1.59,3.84,2.51,5.69,2.05,4.1,4.18,8.17,6.26,12.25,1.93,3.77,3.84,7.55,5.77,11.31,1.33,2.58,2.7,5.13,4.03,7.7,1.15,2.23,2.25,4.48,3.4,6.71,1.83,3.55,3.7,7.09,5.53,10.65,1.38,2.68,2.74,5.38,4.11,8.07,1.22,2.41,2.47,4.81,3.65,7.24.48.98.85,2.02,1.22,3.06.22.64.37,1.33-.3,1.82-.44.32-1.78.17-2.23-.26-.36-.35-.7-.75-.96-1.19-.56-.95-1.07-1.92-1.57-2.9-2.03-3.98-4.05-7.96-6.09-11.94-2.09-4.08-4.19-8.16-6.27-12.25-1.72-3.39-3.39-6.81-5.11-10.19-1.76-3.46-3.58-6.88-5.35-10.34-1.29-2.51-2.52-5.05-3.8-7.57-1.17-2.31-2.4-4.58-3.56-6.9-1.56-3.12-3.33-6.14-4.52-9.44-1.15-3.21-1.27-6.44-.15-9.69.85-2.48,2.1-4.73,4.04-6.54,1.49-1.38,3.23-2.36,5.17-2.93,4.01-1.17,7.99-1.09,11.83.66.83.38,1.61.99,2.26,1.65,1.15,1.17,2.29,2.38,3.24,3.71,2.06,2.86,4.03,5.79,5.99,8.72,1.99,2.96,3.93,5.96,5.88,8.94.23.36.39.76.6,1.14.41.74.93.78,1.45.11.16-.21.27-.47.39-.72,1.78-3.95,2.75-8.09,2.77-12.43.04-9.22.09-18.45.1-27.67,0-11.74-.04-23.47-.01-35.21,0-2.19.21-4.38.4-6.57.21-2.35,1.54-4.17,3.08-5.82.69-.74,1.52-1.35,2.29-2.01,1.65-1.4,3.67-1.89,5.73-2.23,1.2-.19,1.34-.28,1.33-1.47-.02-6.87-.05-13.74-.1-20.6,0-.67.08-1.43-.7-1.96ZM107.29,139.15c.62-.2,1.07-.28,1.45-.49,1.37-.76,2.7-1.59,4.07-2.34,2.17-1.19,4.36-2.32,6.53-3.5,2.45-1.32,4.88-2.68,7.33-3.99,2.53-1.34,5.07-2.65,7.62-3.93.85-.43,1.2-1.03,1.16-1.96-.04-1.1-.01-2.2-.02-3.3,0-22.36-.01-44.73-.03-67.09,0-.94-.11-1.88-.21-2.81-.02-.23-.19-.45-.35-.78-.79.92-1.31,1.8-1.74,2.77-1.12,2.54-2.29,5.07-3.48,7.59-1.14,2.41-2.34,4.79-3.49,7.19-1.23,2.58-2.31,5.24-3.66,7.76-1.61,2.98-1.1,2.83-4.66,3.44-5.03.86-10.07,1.61-15.1,2.42-3.79.61-7.59,1.24-11.38,1.87-.52.09-1.02.28-1.75.48.46.68.74,1.24,1.16,1.67,2.29,2.31,4.62,4.57,6.91,6.88,2.95,2.98,5.88,5.98,8.8,8.99,1.56,1.61,3.08,3.24,4.6,4.88.63.68,1.08,1.48.98,2.44-.16,1.56-.34,3.12-.58,4.67-.68,4.22-1.41,8.43-2.08,12.65-.7,4.41-1.36,8.84-2.03,13.26-.05.33-.04.66-.06,1.23ZM148.67,188.16h-.02c0-4.71.01-9.42,0-14.13-.01-3.18-.07-6.36-.11-9.54-.02-1.88-.39-3.64-1.36-5.29-1.39-2.36-3.28-4.2-5.6-5.59-1.32-.78-2.75-1.35-4.33-1.36-.94,0-1.28.14-1.28.83,0,.94-.76,2.05.43,2.79.29.18.65.27.98.39.18.06.38.08.57.14,2.97.87,5.06,2.69,6.17,5.64.6,1.59.62,3.23.62,4.87.01,11.26,0,22.53.02,33.79.01,4.55.08,9.1.18,13.65.05,2.35.46,2.79,2.67,3.32,3.2.77,6.42,1.51,9.62,2.27,5.68,1.36,11.37,2.71,17.05,4.08,3.66.88,7.33,1.74,10.97,2.69,2.31.6,4.6,1.3,6.88,2.04,1.81.58,3.43,1.61,4.8,2.9.92.87,1.74,1.88,2.23,3.13.87,2.23,1.24,4.55,1.26,6.91.06,7.42.06,14.83.03,22.25-.01,2.87-.45,5.72-1.13,8.5-1.2,4.89-3.13,9.53-5.14,14.13-1.81,4.13-3.91,8.12-6.14,12.03-1.78,3.13-3.71,6.18-5.53,9.3-.43.73-.75,1.55-.99,2.37-.21.73.24,1.56.86,1.9.56.3,1.44.2,1.96-.32.38-.38.73-.82,1.01-1.29,1.12-1.84,2.2-3.7,3.3-5.56,2.64-4.49,5.27-8.99,7.43-13.75,1.85-4.07,3.73-8.12,5.21-12.35,1.79-5.11,2.89-10.36,2.99-15.78.12-6.24.09-12.48.07-18.72,0-1.96-.19-3.92-.35-5.87-.28-3.35-1.84-6.17-4.03-8.58-2.38-2.63-5.35-4.46-8.81-5.39-3.03-.82-6.07-1.57-9.12-2.32-4.64-1.15-9.29-2.29-13.94-3.42-3.62-.88-7.24-1.76-10.86-2.63-2.21-.53-4.42-1.09-6.64-1.55-1.62-.34-1.9-.57-1.91-2.23,0-8.08,0-16.17,0-24.25ZM163.7,139.09c-.61-.2-1.02-.28-1.37-.46-.76-.4-1.49-.87-2.24-1.29-2.73-1.54-5.48-3.06-8.21-4.6-4.75-2.67-9.49-5.36-14.24-8.03-.23-.13-.5-.23-.77-.27-.67-.11-.97.11-1.04.78-.06.58-.03,1.18-.07,1.76-.05.7.23,1.21.84,1.56,2.79,1.59,5.57,3.21,8.37,4.78,3.25,1.82,6.52,3.6,9.77,5.4,3.05,1.69,6.08,3.42,9.15,5.08.79.43,1.64.77,2.49,1.04,1.11.35,1.88-.22,1.89-1.38,0-.82-.07-1.65-.19-2.46-.78-4.96-1.57-9.92-2.37-14.88-.92-5.69-1.81-11.39-2.8-17.07-.23-1.32.12-2.3,1.02-3.17.85-.82,1.71-1.62,2.53-2.46,6.22-6.37,12.43-12.75,18.63-19.14.79-.81,1.5-1.71,2.16-2.63.45-.63.38-1.08-.24-1.54-.52-.38-1.15-.7-1.78-.83-2.19-.45-4.39-.83-6.6-1.19-5.65-.93-11.31-1.83-16.96-2.76-2.59-.42-5.18-.87-7.77-1.32-1.13-.2-1.9-.87-2.39-1.89-.31-.64-.65-1.26-.94-1.9-2-4.34-3.99-8.69-6-13.04-1.79-3.88-3.59-7.76-5.39-11.63-.53-1.14-1.08-2.27-1.65-3.38-.3-.58-.63-1.17-1.47-1.2-.09.29-.24.55-.24.8-.02,2.08-.04,4.15,0,6.23,0,.32.24.65.41.95.45.78.98,1.52,1.36,2.33,1.19,2.51,2.31,5.06,3.49,7.58,2.48,5.29,4.95,10.58,7.47,15.85.64,1.34,1.51,2.49,3.14,2.74.85.13,1.69.35,2.54.47,4.7.69,9.39,1.38,14.09,2.04,4.08.57,8.16,1.12,12.24,1.68.18.02.35.11.68.23-.24.4-.39.74-.63,1.02-.66.78-1.33,1.55-2.04,2.28-3.16,3.22-6.33,6.44-9.5,9.65-3.03,3.07-6.08,6.13-9.11,9.2-1.06,1.07-1.47,2.3-1.19,3.86.75,4.17,1.4,8.35,2.09,12.53.89,5.38,1.8,10.75,2.67,16.13.12.75.09,1.53.15,2.53ZM229.84,92.08c-.58,1.16-1.19,2.34-1.75,3.54,0,0-2.25,4.31-2.84,6.32-.1.35-.18.7-.18.7s-.06.27-.1.55c-.13.87-.35,10.04-.41,13.4-.06,3.1-.02,6.2.01,9.3.02,1.54.23,1.7,1.72,1.67.94-.02,1.88-.04,2.82-.04,8.79-.05,17.57-.09,26.36-.13.74,0,1.34-.19,1.87-.78,1.29-1.41,2.64-2.78,3.97-4.16.98-1.01,1.99-2,2.94-3.04.21-.23.41-.66.33-.91-.07-.23-.51-.43-.82-.48-4.53-.73-9.06-1.42-13.59-2.14-2.59-.41-5.18-.88-7.77-1.3-1.04-.17-1.68-.78-2.11-1.68-1.34-2.79-2.73-5.55-4.02-8.36-1.77-3.84-3.46-7.72-5.18-11.59-.24-.55-.52-.97-1.26-.86Z"></path><path class="cls-1" d="M15.23,164.62c.35-2.76.65-5.53,1.07-8.28.7-4.54,1.48-9.06,2.23-13.59.18-1.12.41-2.24.53-3.37.17-1.52-.27-2.75-1.42-3.9-5.31-5.28-10.53-10.65-15.78-16-.52-.53-1.01-1.1-1.46-1.69-.74-.98-.46-1.81.7-2.13.87-.24,1.75-.44,2.64-.59,5.91-1.02,11.83-2.03,17.75-3.03,1.39-.24,2.79-.42,4.18-.66,1.03-.17,1.81-.73,2.29-1.67.76-1.5,1.5-3.01,2.23-4.54,2.76-5.81,5.51-11.63,8.28-17.43.27-.56.62-1.1,1.02-1.57.64-.77,1.52-.84,2.29-.2.35.29.7.66.9,1.07,1.12,2.24,2.21,4.5,3.29,6.76.96,2.01,1.91,4.03,2.85,6.06.82,1.78,1.6,3.58,2.41,5.36.7,1.53,1.45,3.04,2.13,4.58.33.75.84,1.21,1.63,1.39.88.2,1.75.44,2.64.58,4.76.76,9.53,1.48,14.3,2.26,2.48.4,4.94.9,7.41,1.35.27.05.54.12.8.19,1.31.36,1.6.79.98,2.02-.47.92-1.16,1.77-1.88,2.53-3.61,3.77-7.25,7.51-10.91,11.23-1.6,1.62-3.27,3.17-4.92,4.73-.61.57-.95,1.26-.93,2.08.02.82.1,1.64.23,2.46.45,2.79.94,5.57,1.39,8.36.25,1.55.46,3.1.69,4.66.55,3.65,1.11,7.29,1.65,10.94.07.46.09.94.06,1.41-.05.77-.26.92-1.05.92-1.56,0-2.87-.76-4.17-1.48-3.88-2.14-7.75-4.29-11.61-6.48-1.94-1.1-3.84-2.29-5.77-3.4-.78-.45-1.58-.87-2.41-1.21-.36-.15-.85-.14-1.24-.04-.52.14-1.02.41-1.49.68-4.71,2.66-9.42,5.34-14.13,7.99-2.12,1.19-4.23,2.4-6.4,3.5-.63.32-1.42.34-2.15.42-.45.05-.73-.25-.74-.72,0-.51,0-1.02,0-1.53-.04,0-.07,0-.11-.01ZM75.59,118.04c-.34-.12-.66-.27-.99-.32-.81-.13-1.63-.22-2.45-.33-3.93-.51-7.86-1.01-11.78-1.53-2.02-.27-4.03-.61-6.05-.88-1.89-.25-3.13-1.25-3.84-3.03-.55-1.38-1.26-2.7-1.88-4.05-1.37-2.99-2.72-6-4.12-8.98-.96-2.06-1.98-4.09-3.01-6.11-.14-.28-.55-.68-.72-.63-.31.09-.64.43-.78.75-1.15,2.61-2.21,5.27-3.4,7.86-1.9,4.13-3.89,8.22-5.85,12.32-.46.97-1.18,1.63-2.3,1.8-5.16.79-10.31,1.62-15.47,2.38-1.86.27-3.75.37-5.61.6-.39.05-1.03.28-1.05.49-.05.4.22.86.45,1.24.15.26.47.41.69.63,3.87,3.95,7.73,7.9,11.59,11.86.98,1.01,1.95,2.05,2.89,3.09.72.8,1.03,1.75.9,2.82-.1.82-.17,1.64-.3,2.45-.65,4.27-1.31,8.53-1.97,12.79-.35,2.25-.7,4.5-1.05,6.74-.12.78.11,1.07.86.92.45-.09.9-.28,1.31-.5,1.21-.65,2.38-1.36,3.59-2.01,4.63-2.48,9.28-4.92,13.89-7.42,1.46-.79,2.83-.75,4.23.07,1.18.69,2.37,1.37,3.57,2.04,3.51,1.98,7.03,3.96,10.54,5.94,1.16.65,2.33,1.3,3.49,1.96.42.23.83.47,1.48.11-.05-.53-.08-1.14-.16-1.75-.06-.46-.21-.92-.27-1.38-.34-2.29-.66-4.58-1.01-6.87-.65-4.27-1.28-8.53-1.99-12.79-.25-1.49.14-2.68,1.17-3.75,2.8-2.91,5.56-5.86,8.36-8.77,1.98-2.06,4-4.09,5.99-6.14.43-.44.92-.85,1.04-1.63Z"></path></svg>