<svg xmlns="http://www.w3.org/2000/svg" id="Layer_1" data-name="Layer 1" viewBox="0 0 261.76 377.35"><defs><style>      .cls-1 {        fill: #bd302b;        stroke-width: 0px;      }    </style></defs><path class="cls-1" d="M156.09,297.9c-.12-.72-.27-1.21-.27-1.7.02-6.16.07-12.31.1-18.47,0-.47,0-.95-.06-1.42-.14-1.26-.45-1.51-1.68-1.24-2.11.46-4.25.68-6.41.68-7.92.02-15.84.04-23.77.06-3.01,0-6.03,0-9.04,0-.39,0-.78,0-1.16-.04-1.34-.15-2-.96-1.9-2.28.07-.86.49-1.36,1.35-1.46.64-.08,1.29-.08,1.93-.08,9.56-.07,19.12-.14,28.67-.18,3.53-.02,7.06-.09,10.57-.55,1.26-.17,1.3-.09,1.34,1.18.02.63-.13,1.41.54,1.74.73.36,1.27-.24,1.82-.66,3.11-2.4,5.43-5.35,6.54-9.18.98-3.37.6-6.69-.62-9.88-.82-2.14-2.31-3.93-3.97-5.51-.99-.94-2.09-1.79-3.19-2.6-.54-.4-.8-.85-.83-1.5-.09-2.37-.2-4.73-.31-7.09,0-.17,0-.34-.01-.52-.08-1.99-.28-2.17-2.27-2.6-5.06-1.09-9.41-3.46-12.99-7.23-1.69-1.79-3.36-3.61-4.31-5.91-.67-1.63-1.29-3.3-1.66-5.01-.33-1.52-1.08-2.24-2.59-2.34-1.3-.08-2.54-.36-3.65-1.12-3.2-2.19-5.39-5.04-5.95-8.97-.08-.58-.05-1.21.06-1.79.44-2.19,1.26-4.2,2.9-5.79.19-.18.36-.37.52-.57.56-.71.59-1.14.08-1.86-.37-.53-.76-1.05-1.19-1.52-1.49-1.63-2.16-3.64-2.38-5.76-.2-1.93.65-3.7,1.46-5.42.29-.62.63-1.24,1.05-1.78,1.14-1.45,1.4-3.09,1.22-4.87-.39-3.85-.63-7.73-1.15-11.56-.48-3.55-1.68-6.93-2.78-10.33-1.44-4.46-3.6-8.57-5.97-12.56-1.11-1.88-2.48-3.62-3.8-5.37-2.73-3.59-5.52-7.15-8.29-10.72-.61-.78-1.23-1.55-1.81-2.35-2.02-2.76-3.43-5.86-4.88-8.93-.86-1.83-1.72-3.68-2.34-5.59-2.25-6.86-3.71-13.87-3.88-21.13-.08-3.77.18-7.48.98-11.16.16-.76.22-1.53.37-2.29,1.3-6.73,3.55-13.11,7.01-19.05.8-1.37,1.65-2.72,2.42-4.11,1.69-3.03,3.99-5.6,6.25-8.2,2.32-2.67,4.88-5.07,7.6-7.34,2.79-2.32,5.7-4.45,8.85-6.23,5.23-2.95,10.75-5.2,16.61-6.62,4.15-1.01,8.35-1.7,12.59-2.14.54-.06,1.1,0,1.76,0,.08.83.14,1.59.22,2.35.13,1.24.39,1.47,1.58,1.61,3.33.38,6.67.72,10,1.19,5.1.71,10.04,2.12,14.74,4.18,4.05,1.77,8.03,3.8,11.61,6.42,3.29,2.4,6.42,5.06,8.96,8.32,1.67,2.14,3.52,4.14,5.03,6.38,3.46,5.15,6.44,10.55,8.31,16.54,1.82,5.85,2.77,11.82,3.12,17.89.16,2.81-.25,5.67-.56,8.49-.64,5.77-2.26,11.32-4.44,16.67-1.74,4.26-3.88,8.35-6.7,12.03-3.95,5.16-7.87,10.34-11.78,15.53-2.29,3.04-3.97,6.44-5.57,9.88-2.06,4.44-3.32,9.15-4.39,13.89-.66,2.92-.73,5.97-1.01,8.97-.13,1.41-.17,2.84-.19,4.26-.03,1.77-.26,2-2.02,1.98-2.8-.03-5.59-.06-8.39-.04-5.12.04-10.24.11-15.37.17-.65,0-1.29-.06-1.94-.02-.91.05-1.2.31-1.17,1.18.1,3.39-.25,3.16,3.21,3.23,7.14.14,14.29.05,21.44.09,1.55,0,3.09.14,4.64.26.85.07,1.46.52,2.03,1.21,2.03,2.47,1.9,6.89-.35,9.46-.55.62-1.5.98-2.34,1.23-.81.24-1.7.24-2.56.25-6.72.07-13.43.11-20.15.16-1.46.01-2.93,0-4.39.03-1.36.02-1.59.25-1.53,1.6.13,2.89-.18,2.81,2.93,2.87,6.11.13,12.23.05,18.34.07,2.28,0,4.57-.02,6.84.13,2.56.17,4.39,2.25,4.59,4.83.15,1.95-.32,3.65-1.54,5.18-.71.88-1.58,1.48-2.66,1.69-.88.17-1.79.24-2.69.25-7.84.05-15.67.07-23.51.09-1.98,0-2.09-.08-2.12-2.12-.03-2.45.01-4.91,0-7.36,0-.56-.03-1.12-.1-1.67-.12-1-.3-1.18-1.31-1.23-1.12-.06-2.24-.08-3.36-.07-6.03.06-12.05.13-18.08.2-.6,0-1.2.1-1.8.1-3.25-.02-5.2,2.88-5.26,5.32-.06,2.35.71,4.38,2.66,5.87.69.52,1.42.8,2.26.83,1.46.05,2.93.13,4.39.12,5.94,0,11.88-.02,17.82-.05,2.48-.01,2.48-.04,2.57,2.44.09,2.41.08,2.47,2.61,2.51,5.12.08,10.25.08,15.37.11.43,0,.86-.02,1.29.03.81.08,1.06.4.97,1.18-.02.17-.06.34-.12.5-1.61,4.64-4.16,8.57-8.36,11.29-2.73,1.77-5.7,2.8-8.98,2.87-.6.01-1.2.08-1.8.17-.59.08-.93.45-.94,1.05,0,.73,0,1.47.08,2.19.11.96.36,1.25,1.32,1.22,1.37-.05,2.74-.18,4.09-.45,4.72-.93,8.84-3.09,12.36-6.34,2.24-2.07,3.85-4.6,5.05-7.41.73-1.71,1.42-3.41,1.58-5.29.05-.59.39-.94,1-1,.21-.02.43-.07.64-.07,3.81.03,6.28-2.2,8.42-5,2.09-2.72,2.25-5.77,1.55-8.96-.31-1.43-1.19-2.56-2.12-3.64-.14-.16-.31-.3-.46-.46-1.03-1.06-1.01-1.6-.01-2.75.61-.71,1.16-1.49,1.71-2.25.79-1.08,1.04-2.33,1.15-3.64.25-3.05-.38-5.83-2.43-8.18-.85-.97-1.22-2.1-1.18-3.33.13-4.13.16-8.27.57-12.38.25-2.55,1.05-5.05,1.73-7.54,1.22-4.41,3.03-8.6,5.17-12.64,1.55-2.93,3.33-5.72,5.51-8.24,1.32-1.53,2.44-3.22,3.67-4.82,2.3-3,4.68-5.94,6.91-9,1.21-1.66,2.3-3.44,3.24-5.28,1.39-2.72,2.71-5.48,3.85-8.31,1.61-4,2.58-8.21,3.45-12.42.32-1.54.22-3.17.35-4.76.37-4.43.25-8.86-.14-13.28-.33-3.75-1.21-7.39-2.31-10.97-.68-2.22-1.42-4.42-2.26-6.58-.65-1.68-1.45-3.31-2.27-4.92-1.12-2.18-2.28-4.34-3.52-6.46-.58-1-1.35-1.89-2.07-2.8-3-3.78-6.01-7.55-9.72-10.67-1.87-1.57-3.82-3.07-5.82-4.48-3.48-2.48-7.31-4.37-11.16-6.16-2.37-1.1-4.93-1.78-7.4-2.67-3.35-1.2-6.86-1.63-10.36-2.07-2.69-.34-5.39-.6-8.09-.84-1.77-.16-1.97-.27-1.97-2.08-.01-2.84.04-5.68.04-8.53,0-2.2-.05-4.39-.08-6.59-.02-1.42.19-1.65,1.62-1.64,26.31.04,52.61.09,78.92.12,5.55,0,11.11-.05,16.66-.07,2.25-.01,2.4.13,2.4,2.39.08,23.29.16,46.59.24,69.88,0,1.42,0,2.84,0,4.26,0,.26,0,.52.03.77.18,2.37.3,2.48,2.61,2.71.77.08,1.55.15,2.28.37.4.12.81.5,1.02.87.43.73.2,1.32-.57,1.69-1.39.66-2.84.6-4.3.29-.24-.05-.47-.35-.6-.59-.13-.26-.15-.58-.2-.88-.29-1.68-.41-1.81-2.11-2.05-.47-.07-.94-.11-1.42-.1-3.87.08-7.75.18-11.62.29-.47.01-.94.09-1.4.2-1.01.26-1.25.56-1.29,1.49-.05,1.02.29,1.68,1.14,1.94.65.19,1.35.32,2.03.32,3.83,0,7.66-.02,11.49-.12,2.77-.07,2.74-.13,2.75,2.55.02,11.02.1,22.04.08,33.07-.03,18.17-.17,36.34-.17,54.51,0,19.29.15,38.58.17,57.87.02,15.41-.08,30.83-.09,46.24-.02,28.07,0,56.15,0,84.22,0,4.43.01,8.87.02,13.3,0,1.23-.13,1.44-1.39,1.47-4.3.12-8.61.26-12.91.27-22.86.03-45.72.01-68.59.02-4.78,0-9.56.03-14.34.04-2.1,0-2.43-.35-2.43-2.5.02-7.45.06-14.9.06-22.35,0-14.64,0-29.28-.02-43.92,0-1.2-.02-2.41-.06-3.61-.01-.37-.1-.74-.16-1.1-.8-.19-1.38.1-1.92.44-1.46.91-2.9,1.85-4.35,2.78-1.59,1.02-3.19,2.03-4.79,3.04-3.16,2-6.27,4.07-9.5,5.96-3.6,2.11-7.33,3.96-11.51,4.73-4.21.78-8.43,1.23-12.71.78-2.75-.29-5.43-.91-8.01-1.93-2.96-1.17-5.91-2.36-8.86-3.54-3.31-1.33-6.62-2.65-9.92-4.01-3.54-1.46-7.05-2.97-10.59-4.43-3.34-1.38-6.7-2.7-10.03-4.07-1.91-.79-3.79-1.64-5.68-2.47-2.88-1.26-5.9-1.94-9.02-1.98-6.03-.08-12.05-.07-18.08-.08-3.96-.01-7.92,0-11.88,0-.3,0-.61.01-.9-.04-.94-.15-1.42-.72-1.42-1.69,0-.97.34-1.35,1.38-1.5.42-.06.86-.07,1.29-.07,9.39,0,18.77.06,28.16-.03,3.98-.04,7.78.8,11.54,1.9,1.56.46,3.03,1.2,4.54,1.81,1.03.42,2.06.86,3.1,1.29,1.98.83,3.95,1.66,5.93,2.49.6.25,1.19.49,1.79.73,1.96.77,3.93,1.5,5.88,2.3,2.35.96,4.67,1.97,7.01,2.95,2.1.88,4.2,1.75,6.3,2.63.04.02.08.04.12.05,3.52,1.39,7.01,2.84,10.56,4.15,1.93.71,3.92,1.33,5.94,1.73,3.98.79,7.97.53,11.92-.34,4.09-.9,7.77-2.76,11.35-4.84,2.04-1.19,4.05-2.45,6.04-3.72,3.27-2.07,6.51-4.18,9.77-6.27,1.63-1.05,3.24-2.12,4.88-3.15.45-.28.99-.43,1.71-.74.05.79.11,1.37.13,1.94.07,2.13.25,2.27,2.04,1.22.96-.56,1.81-1.3,2.74-1.91,2.48-1.62,4.98-3.22,7.48-4.83,2.31-1.49,4.62-2.98,6.94-4.46.94-.6,1.93-1.12,2.87-1.72,3.23-2.05,6.45-4.12,9.68-6.18,2.21-1.42,4.4-2.86,6.61-4.27,2.25-1.43,4.53-2.81,6.78-4.24,2.18-1.38,4.33-2.81,6.5-4.2,1.23-.79,2.5-1.52,3.73-2.3,4.13-2.63,8.25-5.29,12.39-7.92,2.21-1.41,4.47-2.75,6.67-4.17,3.14-2.03,6.27-4.07,9.23-6.38,4.68-3.64,5.85-9.71,4.32-14.66-.52-1.69-1.66-3-2.79-4.3-1.23-1.41-2.74-2.55-4.4-3.33-3.37-1.58-6.85-1.91-10.36-.32-3.22,1.46-6.19,3.35-9.15,5.27-2.31,1.5-4.69,2.87-7.04,4.31-2.27,1.39-4.52,2.81-6.79,4.21-2.41,1.49-4.84,2.96-7.26,4.44-2.12,1.3-4.24,2.61-6.36,3.92-2.42,1.48-4.85,2.95-7.25,4.45-1.86,1.16-3.69,2.36-5.52,3.56-.32.21-.6.49-.86.77-.66.71-.74,1.29-.33,2.11.38.76.88,1.08,1.8.92.66-.12,1.34-.35,1.91-.7,3.97-2.49,7.9-5.05,11.88-7.52,3.84-2.38,7.73-4.66,11.59-7,2.83-1.72,5.65-3.46,8.46-5.2,3.47-2.15,6.91-4.37,10.42-6.46,1.99-1.19,4.07-2.24,6.16-3.25,1.57-.75,3.26-.86,4.91-.26,3.26,1.2,5.87,3.18,6.77,6.69.93,3.63-.11,6.78-2.86,9.37-2.27,2.15-4.95,3.7-7.54,5.37-2.23,1.45-4.48,2.88-6.72,4.3-1.34.85-2.71,1.67-4.05,2.52-2.18,1.38-4.34,2.78-6.51,4.16-2.39,1.52-4.79,3.03-7.18,4.56-2.17,1.39-4.32,2.8-6.5,4.18-2.28,1.45-4.59,2.88-6.87,4.33-2.21,1.41-4.39,2.85-6.59,4.27-1.34.86-2.7,1.68-4.04,2.53-2.21,1.4-4.41,2.82-6.62,4.23-2.25,1.43-4.5,2.84-6.76,4.27-2.68,1.7-5.36,3.41-8.06,5.09-.97.6-1.99,1.13-3.17,1.8ZM155.87,46.32c-.02-.2-.07-.45-.07-.7.02-6.07.06-12.14.07-18.21,0-.9-.04-1.81-.1-2.71-.09-1.23-.37-1.51-1.62-1.42-1.46.1-2.91.28-4.36.47-6.64.87-13.15,2.3-19.19,5.3-2.57,1.28-5.09,2.7-7.5,4.26-2.13,1.36-4.13,2.94-6.1,4.53-1.5,1.21-2.9,2.56-4.26,3.93-1.33,1.34-2.51,2.83-3.84,4.16-1.78,1.78-3.17,3.84-4.46,5.97-1.51,2.5-2.87,5.08-4.09,7.74-1.05,2.28-1.85,4.63-2.61,6.99-.84,2.61-1.53,5.29-1.75,8.05-.26,3.17-.83,6.34-.85,9.51-.04,5.82.61,11.57,2.06,17.25,1.33,5.23,3.61,10.02,6.09,14.74,2.5,4.76,6.12,8.72,9.41,12.91,2.09,2.67,4.29,5.29,6.16,8.12,2.77,4.2,5.07,8.68,6.71,13.46.72,2.11,1.4,4.25,1.9,6.43,1.22,5.38,1.87,10.85,2.35,16.34.16,1.8.46,2.04,2.26,1.96.13,0,.26-.03.39-.03,7.36,0,14.72-.01,22.08,0,1.09,0,1.26-.1,1.27-1.23.01-1.08.02-2.15.02-3.23.03-17.01.06-34.01.07-51.02,0-4.78-.04-9.56-.09-14.34,0-.62.1-1.4-.61-1.72-.65-.29-1.12.27-1.59.63-1.96,1.46-3.9,2.97-5.87,4.41-3.09,2.26-6.18,4.52-9.31,6.7-.91.63-1.95,1.1-2.99,1.49-.89.34-1.59-.1-1.65-1.05-.05-.83.1-1.71.31-2.52.29-1.08.75-2.11,1.09-3.17.82-2.63,1.58-5.28,2.43-7.89,1.06-3.23,2.2-6.43,3.3-9.65.55-1.61.28-2.58-1.01-3.5-1.65-1.17-3.32-2.31-4.96-3.48-1.82-1.3-3.63-2.61-5.44-3.93-2.15-1.57-4.3-3.15-6.42-4.76-.95-.73-1.92-1.47-2.73-2.34-.74-.8-.52-1.66.5-2.06.74-.29,1.58-.41,2.38-.42,7.06-.06,14.12-.09,21.18-.09,2.96,0,2.98-.29,3.89-2.79,1.33-3.64,2.56-7.31,3.72-11.01.84-2.66,1.51-5.38,2.26-8.08.2-.72.35-1.49,1.2-2.08.08.58.17.99.2,1.4.06.99.12,1.98.15,2.97.05,1.78.55,3.38,1.65,4.8.36.47.7,1,.89,1.56,1.42,4.15,2.79,8.32,4.2,12.47.34,1.01.77,2,1.19,2.99.45,1.07,1.31,1.55,2.44,1.61.39.02.77.04,1.16.03,4.86-.06,9.73-.14,14.59-.19.6,0,1.21,0,1.8.08.91.13,1.1.65.47,1.32-.53.56-1.12,1.08-1.74,1.53-2.04,1.5-4.11,2.96-6.18,4.43-.98.69-1.99,1.35-2.97,2.05-1.19.85-2.39,1.68-3.53,2.6-1.09.87-1.39,2.04-.94,3.37,1.7,4.92,3.42,9.83,5.12,14.75.22.65.43,1.31.53,1.99.1.72-.29.96-.94.65-.15-.07-.29-.18-.43-.28-1.67-1.21-3.33-2.44-5-3.64-2.76-1.98-5.53-3.94-8.28-5.94-.71-.52-1.45-.89-2.32-1.06-1.62-.32-1.69-.44-1.76-2.12,0-.17,0-.34,0-.52.01-8.78.04-17.56.04-26.35,0-1.72-.05-3.44-.15-5.16-.03-.57-.16-1.25-.91-1.41-.5-.11-.8.24-.98,1.27-.67,3.69-1.59,7.31-2.95,10.81-.33.86-.8,1.41-1.64,1.64-.58.16-1.18.29-1.77.31-1.33.05-2.67.05-4,.02-4.13-.09-8.26.33-12.38-.26-.17-.02-.35-.01-.52,0-.41.05-.99-.03-1.03.53-.02.3.31.64.51.95.06.1.2.15.31.23,1.71,1.22,3.44,2.42,5.13,3.66,2.91,2.14,5.78,4.33,8.7,6.45,1.11.81,1.51,1.83,1.31,3.14-.07.47-.19.93-.34,1.38-.54,1.68-1.09,3.35-1.66,5.02-.97,2.84-1.97,5.68-2.91,8.53-.21.64-.27,1.35-.28,2.03-.02.76.41,1,1.09.61.7-.41,1.36-.9,2-1.4.92-.71,1.78-1.5,2.7-2.2,2.37-1.78,4.76-3.54,7.14-5.3.35-.26.68-.54,1.04-.77.91-.59,1.34-.39,1.46.65.04.38.04.77.07,1.16.07.84.41,1.42,1.26,1.76.95.38,1.9.84,2.73,1.43,2.81,1.98,5.56,4.05,8.35,6.07,2.4,1.75,4.78,3.51,7.22,5.2,1.09.75,2.24,1.45,3.45,1.98,1.36.6,2.42-.32,2.19-1.8-.06-.42-.19-.84-.32-1.25-.94-2.95-1.88-5.9-2.85-8.84-.81-2.45-1.67-4.89-2.48-7.34-.55-1.67-1.04-3.36-1.91-4.92-.63-1.13-.38-2.01.55-2.9.31-.3.65-.56,1-.81,2.16-1.55,4.35-3.08,6.5-4.65,1.88-1.37,3.71-2.79,5.58-4.16,2.08-1.53,4.18-3.02,6.26-4.54.24-.18.47-.39.66-.62.45-.55.84-1.15.52-1.88-.32-.71-.89-1.16-1.69-1.22-.73-.05-1.46-.09-2.19-.09-4.61,0-9.21.02-13.82.02-2.67,0-5.34-.05-8-.06-1.25,0-1.98-.62-2.31-1.83-.48-1.74-1.04-3.46-1.57-5.19-.83-2.67-1.6-5.36-2.51-8.01-.96-2.8-2.08-5.56-3.08-8.35-.28-.79-.7-1.38-1.48-1.68-.59-.23-1.2-.39-1.99-.64ZM142.63,192.4s0,.05,0,.07c4,0,8,0,11.99,0,.95,0,1.15-.18,1.16-1.26.03-2.92.04-5.85.03-8.77,0-.6-.09-1.2-.16-1.8-.05-.5-.36-.77-.85-.81-.38-.03-.77-.05-1.16-.05-3.01,0-6.02,0-9.03.03-4.51.06-9.03.18-13.54.22-2.31.02-3.64,1.37-4.54,3.23-1.13,2.32-.8,4.59.49,6.77.87,1.48,2.07,2.38,3.87,2.31.47-.02.95.04,1.42.04,3.44,0,6.88,0,10.32,0ZM146.97,214.17v.03c-2.24,0-4.47-.02-6.71,0-1.97.02-2.17.29-1.68,2.19.03.12.06.25.12.37.86,1.73,1.63,3.51,2.6,5.18,1.34,2.31,3.36,3.94,5.57,5.44,2.4,1.63,4.94,2.73,7.82,3.01.87.08,1.11-.1,1.13-.95.02-.82,0-1.63-.01-2.45-.01-3.74,0-7.48-.05-11.22-.02-1.47-.22-1.59-1.7-1.61-2.36-.02-4.73,0-7.09,0ZM229.99,110.24c-.42.2-.81.3-1.09.53-.81.65-.97,1.75-.29,2.66.56.75,1.24,1.43,1.96,2.04,3.89,3.32,7.8,6.61,11.71,9.91.95.81,1.87,1.65,3.12,2,1.45.41,2.64-.7,2.19-2.14-.21-.66-.68-1.29-1.16-1.81-.65-.68-1.43-1.24-2.15-1.85-2.4-2.02-4.8-4.04-7.21-6.06-1.78-1.49-3.54-3.01-5.35-4.45-.48-.38-1.13-.56-1.72-.84ZM247.68,37.88c.04-1.37-1.05-2.14-2.32-1.58-.47.2-.9.5-1.3.83-2,1.62-3.99,3.26-5.97,4.9-1.36,1.12-2.7,2.26-4.06,3.37-1.59,1.3-3.21,2.58-4.8,3.89-.29.24-.55.56-.75.88-.46.75-.38,1.71.17,2.42.54.7,1.23.91,2.18.58.44-.15.88-.36,1.24-.64.84-.67,1.65-1.38,2.44-2.1,3.68-3.35,7.3-6.78,11.35-9.7.96-.69,1.68-1.6,1.81-2.86Z"></path><path class="cls-1" d="M155.79,249.96c-.39,0-.67.07-.89-.01-2.9-1.05-5.94-.97-8.94-.98-10.33-.06-20.66,0-31-.05-5.12-.02-10.25-.08-15.36-.31-4.34-.2-8.51-1.23-12.27-3.55-1.88-1.16-3.51-2.63-5.07-4.17-2.95-2.9-5.84-5.85-8.85-8.67-2.17-2.03-4.58-3.77-7.36-4.93-2.71-1.13-5.55-1.54-8.45-1.56-6.28-.06-12.57-.07-18.85-.09-6.33-.01-12.65,0-18.98-.02-.51,0-1.03-.06-1.54-.16-.64-.12-1.06-.52-1.28-1.14-.65-1.77-.08-2.65,1.83-2.65,5.17-.02,10.33,0,15.5,0,7.88,0,15.76-.04,23.63-.01,1.67,0,3.37.08,5.02.37,2.58.47,5.06,1.27,7.35,2.66,3.28,1.99,5.91,4.7,8.64,7.31,2.7,2.59,5.33,5.26,8.11,7.76,2.77,2.48,6,4.04,9.74,4.65,4.58.76,9.19.63,13.78.64,12.01,0,24.02-.09,36.03-.11,2.06,0,4.12.2,6.18.32.26.01.51.06.77.1,2.09.37,2.16.44,2.26,2.54.03.64,0,1.27,0,2.05Z"></path><path class="cls-1" d="M86.15,112.73c-.16.26-.35.76-.71,1.08-1.33,1.22-2.7,2.38-4.06,3.56-2.14,1.85-4.26,3.73-6.45,5.53-1.55,1.28-3.17,2.48-4.81,3.65-.51.36-1.16.57-1.78.71-.98.22-1.57-.38-1.46-1.37.08-.77.45-1.38,1.01-1.89,1.3-1.19,2.58-2.39,3.91-3.56,1.61-1.42,3.24-2.8,4.88-4.19,1.93-1.64,3.86-3.27,5.8-4.9.23-.19.47-.37.73-.53.64-.41,1.34-.68,2.05-.24.68.42.85,1.15.91,2.15Z"></path><path class="cls-1" d="M64.45,83.67c-3.22,0-6.45-.03-9.67.02-1.33.02-2.2-.55-2.17-2.37.01-.67.33-1.16,1.04-1.27.47-.08.94-.15,1.41-.15,5.59-.02,11.17-.04,16.76-.02,1.11,0,2.22.17,3.33.31.78.1,1.18.62,1.31,1.39.15.94-.14,1.46-1.07,1.75-.36.11-.76.17-1.14.17-3.27.01-6.53,0-9.8,0,0,.05,0,.11,0,.16Z"></path><path class="cls-1" d="M84.08,53.1c-.57-.27-1.21-.45-1.69-.83-1.49-1.16-2.96-2.36-4.38-3.61-3.28-2.91-6.54-5.85-9.78-8.81-.46-.42-.88-.97-1.13-1.54-.41-.93.21-1.78,1.23-1.73.5.02,1.06.15,1.46.43,1.57,1.12,3.13,2.27,4.61,3.51,3.19,2.68,6.33,5.42,9.48,8.14.39.34.78.68,1.11,1.08.29.36.57.77.71,1.21.39,1.25-.22,2.01-1.61,2.13Z"></path><path class="cls-1" d="M156.23,250.83c1.16.79,2.09,1.63,2.77,2.65,1.87,2.81,2.47,5.96,1.92,9.24-.42,2.51-1.81,4.62-3.53,6.48-.23.24-.68.44-1,.4-.5-.06-.61-.56-.6-1.01.03-1.03.13-2.06.12-3.09-.03-3.91-.09-7.82-.16-11.73-.02-.94-.11-1.88.49-2.95Z"></path><path class="cls-1" d="M94.41,275.94c-1.29,0-2.57,0-3.86,0-.78,0-1.44-.23-1.82-.98-.62-1.21-.06-2.39,1.31-2.57,1.06-.14,2.14-.12,3.21-.13,1.33-.02,2.66-.02,3.99.03.59.02,1.2.1,1.77.27.92.26,1.43,1.08,1.32,1.94-.1.73-.71,1.26-1.67,1.3-1.41.05-2.83.01-4.24.01,0,.04,0,.09,0,.13Z"></path><path class="cls-1" d="M1.6,294.72c-.95-.01-1.58-.72-1.6-1.79-.01-.95.67-1.71,1.54-1.72,1,0,1.85.89,1.84,1.93-.01,1.01-.67,1.59-1.78,1.58Z"></path></svg>