<svg xmlns="http://www.w3.org/2000/svg" id="Layer_1" data-name="Layer 1" viewBox="0 0 352.5 305.33"><defs><style>      .cls-1 {        fill: #bd302b;        stroke-width: 0px;      }    </style></defs><path class="cls-1" d="M98.85,155.37c-.24.28-.35.36-.38.45-.28,1.28-1.14,2.21-1.9,3.2-2.05,2.62-4.09,5.24-6.14,7.86-2.51,3.21-5.01,6.41-7.52,9.61-2.44,3.11-4.89,6.2-7.33,9.31-1.96,2.49-3.91,4.99-5.86,7.49-3.18,4.07-6.36,8.13-9.52,12.21-2.13,2.75-4.22,5.54-6.33,8.3-.45.59-.95,1.15-1.41,1.73-2.51,3.2-5.01,6.41-7.51,9.62-2.61,3.33-5.21,6.65-7.83,9.97-.73.92-1.5,1.8-2.27,2.69-.15.18-.34.33-.51.48-.35.31-.74.46-1.17.19-.48-.3-.72-.79-.52-1.31.25-.65.56-1.3.97-1.86,1.38-1.85,2.81-3.67,4.24-5.48,1.48-1.87,3-3.72,4.47-5.59,3.72-4.74,7.43-9.49,11.15-14.23,3.21-4.1,6.43-8.19,9.64-12.29,2.82-3.61,5.6-7.24,8.42-10.85,4.1-5.24,8.21-10.47,12.33-15.7,1.31-1.66,2.63-3.31,3.92-4.98,2.9-3.74,5.78-7.5,8.68-11.24.41-.52.87-1.01,1.32-1.49.7-.75.75-1.22.12-2.05-1.44-1.9-2.89-3.79-4.34-5.69-2.71-3.54-5.42-7.09-8.15-10.61-.42-.54-.96-1-1.53-1.58-.36.42-.65.73-.9,1.06-2.02,2.64-4.02,5.3-6.04,7.94-1.24,1.62-2.49,3.22-3.75,4.81-2.52,3.19-5.07,6.36-7.56,9.57-2.26,2.9-4.46,5.85-6.68,8.77-.31.4-.63.8-.95,1.19-2.23,2.78-4.47,5.55-6.68,8.34-1,1.26-1.92,2.57-2.91,3.83-2.49,3.17-5.01,6.31-7.49,9.48-2.19,2.81-4.34,5.65-6.51,8.46-.93,1.21-1.91,2.38-2.85,3.59-1.3,1.66-2.58,3.35-3.88,5.01-2.49,3.17-5,6.32-7.49,9.48-1.93,2.46-3.85,4.94-5.78,7.39-3.24,4.12-6.49,8.22-9.74,12.34-.7.89-1.37,1.8-2.05,2.72-.44.59-.98,1-1.75,1.06-.53.04-.81-.21-.86-.73-.07-.7.2-1.31.61-1.85,1.7-2.25,3.39-4.5,5.11-6.73,2.73-3.53,5.48-7.04,8.23-10.55,1.5-1.91,3.03-3.79,4.53-5.7,3.03-3.84,6.04-7.7,9.07-11.54,1.62-2.06,3.28-4.09,4.89-6.16,2.14-2.74,4.25-5.52,6.39-8.26,1.4-1.79,2.84-3.55,4.24-5.33,3.07-3.91,6.12-7.83,9.19-11.74,3.79-4.84,7.59-9.66,11.39-14.49,3.48-4.43,6.98-8.85,10.45-13.29,2.68-3.42,5.32-6.87,7.99-10.29.56-.71.85-1.49.87-2.38.02-.74.03-1.49.03-2.23,0-21.5-.02-43.01-.02-64.51,0-3.02.04-6.03.06-9.05,0-.27,0-.55.02-.82.01-.5.12-1,.65-1.13.53-.13,1.07-.06,1.5.41.73.81.77.76,1.58.13,1.26-.99,2.49-2.03,3.84-2.87,1.8-1.12,3.8-1.83,5.85-2.36.57-.15,1.12-.34,1.69-.48.63-.16.91-.57.94-1.18.02-.27.02-.55.02-.82-.02-13.71-.05-27.42-.07-41.13,0-1.09,0-2.18,0-3.35C99.36.07,99.62,0,99.87,0c37.53,0,75.05.02,112.58.01,6.19,0,12.38.08,18.55.52,2.85.2,5.69.53,8.54.71,4.54.29,9.02,1.04,13.49,1.85,2.92.53,5.8,1.28,8.7,1.95,1.52.35,3.08.63,4.56,1.11,5.09,1.66,10.22,3.24,15.22,5.15,5.27,2.01,10.22,4.73,15,7.73,6.9,4.34,13.1,9.53,18.45,15.68,3.45,3.96,6.45,8.27,8.94,12.9,3.63,6.75,6.28,13.88,8.12,21.32,1.49,6.03,2.32,12.14,2.75,18.32.22,3.16.59,6.32.72,9.49.11,2.54.07,5.09-.08,7.63-.22,3.79-.55,7.58-.93,11.35-.17,1.71-.62,3.38-.88,5.08-.55,3.56-1.37,7.06-2.37,10.52-1.47,5.08-3.13,10.09-5.6,14.79-.96,1.84-1.83,3.73-2.9,5.5-1.56,2.57-3.26,5.06-4.92,7.57-2.01,3.05-4.36,5.83-6.85,8.49-3.38,3.61-7.05,6.9-11.03,9.83-2.11,1.55-4.07,3.3-6.34,4.64-2.12,1.25-4.23,2.53-6.35,3.78-.79.46-.85.66-.39,1.48,2.66,4.74,5.31,9.49,7.96,14.24,1.11,1.98,2.23,3.95,3.34,5.94,2.07,3.73,4.12,7.47,6.19,11.19,2.03,3.66,4.09,7.3,6.13,10.95,2.06,3.69,4.1,7.39,6.16,11.08,1.66,2.97,3.33,5.94,4.99,8.91,1.53,2.73,3.04,5.47,4.57,8.2,1.14,2.05,2.29,4.1,3.43,6.15,2.19,3.93,4.37,7.87,6.55,11.8,2.13,3.83,4.26,7.66,6.38,11.49,2.48,4.48,4.95,8.97,7.44,13.45.65,1.16,1.37,2.28,2.04,3.43.17.28.28.6.47,1.03-.51.03-.85.07-1.19.07-28.4,0-56.8,0-85.2-.01-.78,0-1.57-.03-2.35-.05-.58-.02-1.07-.24-1.36-.77-.73-1.33-1.48-2.66-2.18-4.01-2.22-4.32-4.41-8.64-6.62-12.97-2.44-4.77-4.88-9.54-7.33-14.31-2.63-5.12-5.26-10.23-7.89-15.34-2.5-4.87-4.99-9.75-7.49-14.63-2.46-4.81-4.93-9.61-7.38-14.42-1.71-3.34-3.4-6.7-5.11-10.04-1.52-2.96-3.06-5.9-4.58-8.86-.8-1.57-1.57-3.15-2.37-4.72-1.51-2.99-1.41-2.5-4.09-2.5-8.77.02-17.55.03-26.32.04-.23,0-.47,0-.7-.02-.61-.06-.86.3-.91.83-.04.39-.03.78-.02,1.17.01,1.17.05,2.35.04,3.52,0,.9.27,1.65.84,2.37,3.1,3.89,6.19,7.78,9.24,11.7,3.15,4.04,6.27,8.11,9.4,12.17.38.5.71,1.03,1.07,1.54.5.72.62,1.5.46,2.32-1.01.36-1.64.21-2.28-.6-1.45-1.79-2.88-3.6-4.32-5.41-2.07-2.6-4.15-5.2-6.2-7.81-2.05-2.62-4.09-5.24-6.11-7.89-.58-.76-.93-1.72-2.01-2.23-.29,2.34-.11,4.64-.13,6.93-.03,2.35-.02,4.7-.03,7.05,0,2.31-.02,4.62-.02,6.93,0,2.31,0,4.62,0,6.93-.01,2.35-.04,4.7-.05,7.05-.01,2.31-.02,4.62-.02,6.93,0,2.31-.02,4.62-.02,6.93,0,2.31,0,4.62,0,6.93,0,2.35,0,4.7,0,7.05,0,2.31,0,4.62,0,6.93s0,4.62,0,6.93c0,2.35.02,4.7.02,7.05,0,2.3,0,4.61,0,7.02-.46.06-.91.17-1.37.18-1.53.03-3.06.03-4.58.03-24.17,0-48.34.01-72.51.02-.12,0-.24,0-.35,0-1.41-.01-1.45-.05-1.45-1.46,0-20.72.01-41.44,0-62.16,0-1.13-.16-2.26-.18-3.4-.02-.85.05-1.71.1-2.57.02-.39.1-.78.1-1.17,0-20.01,0-40.03-.01-60.04,0-5.01,0-10.03,0-15.04,0-1.09-.02-2.19-.04-3.28,0-.22-.08-.43-.17-.85ZM179.35,101.37c-.03,4.31-.06,8.61-.1,12.92,0,0,.1,20.71.12,23.38,0,1.26.07,1.33,1.33,1.36,1.72.03,3.45.02,5.17.02,8.97-.03,17.93-.04,26.9-.13,2.38-.03,4.78-.2,7.13-.56,4.84-.75,9.57-1.93,14.16-3.68,3.27-1.25,6.37-2.84,9.15-4.96,3.2-2.43,5.98-5.28,8.05-8.76,1.32-2.22,2.59-4.44,3.39-6.94,1.03-3.23,1.58-6.53,2.1-9.86.41-2.6.62-5.22.33-7.84-.46-4.16-1.1-8.29-2.51-12.27-.84-2.39-2.04-4.57-3.51-6.6-2-2.77-4.66-4.83-7.51-6.66-2.72-1.75-5.74-2.85-8.78-3.88-1.85-.62-3.76-1.1-5.68-1.46-2.73-.51-5.47-.94-8.23-1.25-2.29-.26-4.61-.41-6.91-.42-10.93-.04-21.85-.02-32.78-.02-1.83,0-1.84.01-1.84,1.79,0,11.94,0,23.88,0,35.83ZM149.51,176.03c.39.3.85.53,1.13.89,1.39,1.79,2.71,3.64,4.1,5.43,1.13,1.45,2.32,2.85,3.48,4.28,1.41,1.73,2.81,3.47,4.21,5.2.76.93.75,1.25-.04,2.22-2.04,2.53-4.1,5.04-6.1,7.59-2.71,3.44-5.37,6.93-8.07,10.38-3.01,3.85-6.04,7.69-9.07,11.53-1.96,2.49-3.94,4.97-5.88,7.47-1.37,1.76-2.71,3.54-4.03,5.34-.58.78-.52,1.39.03,1.88.65.58,1.4.53,2.09-.14.14-.14.28-.28.4-.43,1.68-2.17,3.34-4.34,5.02-6.5,2.66-3.43,5.33-6.86,8.01-10.28,1.42-1.82,2.88-3.61,4.3-5.43,2.21-2.84,4.38-5.71,6.59-8.55,1.66-2.13,3.35-4.24,5.02-6.36,1.31-1.65,2.62-3.29,4.03-5.06.41.37.82.65,1.12,1.03,1.25,1.61,2.45,3.25,3.69,4.86,2.01,2.6,4.04,5.18,6.07,7.77.75.95,1.49,1.91,2.29,2.83.28.32.61.73,1.26.52-.13-1.1-.27-2.18-.38-3.26-.09-.89-.43-1.67-.97-2.35-1.93-2.46-3.88-4.91-5.83-7.37-2.55-3.22-5.11-6.43-7.65-9.66-2.83-3.6-5.62-7.22-8.45-10.81-1.58-1.99-3.22-3.94-4.82-5.91-1.01-1.24-1.41-1.27-2.5-.16-.14.14-.27.28-.4.43-2.82,3.5-5.66,7-8.46,10.52-1.97,2.48-3.88,5.01-5.83,7.51-.11.15-.29.24-.5.41-.26-.2-.54-.35-.73-.58-1.37-1.71-2.72-3.43-4.07-5.16-2.62-3.36-5.23-6.74-7.86-10.1-2.49-3.17-5.02-6.31-7.51-9.48-2.64-3.35-5.24-6.73-7.87-10.08-1.16-1.48-2.33-2.94-3.55-4.37-.78-.91-1.31-2.02-2.31-2.78-.3-.23-.43-.82-.44-1.25-.03-2.54.01-5.09.01-7.63,0-17,0-34,0-51,0-.42-.03-.83-.06-1.41-.7.11-1.29.1-1.81.3-3.7,1.4-7.35,2.87-10.67,5.09-.89.59-1.16,1.19-1.16,2.18.03,10.58.02,21.15.02,31.73,0,.82-.05,1.65.06,2.46.08.6.26,1.25.6,1.73,1.42,1.97,2.9,3.89,4.39,5.81,2.26,2.91,4.55,5.79,6.8,8.7,1.06,1.38,1.88,2.88,1.84,4.71-.02.78.06,1.57.02,2.34-.03.61.15,1.14.65,1.41,1.33.73,2.1,1.95,2.98,3.1,2.46,3.19,4.98,6.33,7.45,9.52,3.57,4.61,7.11,9.24,10.68,13.85,2.76,3.56,5.55,7.09,8.32,10.63.58.74,1.16,1.48,1.67,2.27.6.93.53,1.25-.24,2.02-.3.31-.58.64-.85.97-1.5,1.86-3,3.71-4.47,5.59-2.65,3.39-5.26,6.81-7.91,10.2-1.26,1.6-2.6,3.13-3.86,4.73-1.76,2.24-3.48,4.52-5.22,6.78-1.65,2.13-3.32,4.26-4.99,6.38-1.18,1.51-2.38,3-3.55,4.51-.64.83-.7,1.82-.63,2.8.05.68.59.93,1.19.6.37-.2.72-.49.98-.82,4.08-5.2,8.14-10.42,12.21-15.63,3.83-4.91,7.65-9.81,11.48-14.71,3.3-4.22,6.6-8.45,9.91-12.66,1.86-2.37,3.74-4.72,5.61-7.09,2.96-3.75,5.91-7.5,9.04-11.47ZM99.07,85.31c.02-.31.08-.73.08-1.15-.03-8.34-.06-16.68-.09-25.02,0-3.05,0-6.11,0-9.16,0-.95-.3-1.2-1.22-.96-.68.18-1.35.4-2,.68-3.54,1.53-6.78,3.55-9.71,6.06-.33.28-.56.75-.69,1.17-.13.4-.09.85-.09,1.28,0,10.18,0,20.36,0,30.55,0,.61,0,1.23,0,2.01,2.36-1.18,4.45-2.41,6.68-3.29,2.24-.89,4.61-1.42,7.06-2.15ZM150.05,56.35c-.44,1.22-.74,2.24-1.16,3.2-1.35,3.11-2.2,6.36-2.51,9.73-.24,2.64-.56,5.27-.12,7.95.57,3.46,1.35,6.82,2.85,10.01.63,1.34,1.15,2.74,1.68,4.13.3.78.14,1.08-.59,1.34-.84.3-1.68.61-2.53.91-2.48.88-5.04,1.41-7.63,1.84-3.04.5-6,.49-8.87-.76-.14-.06-.29-.11-.44-.15-3.19-.87-6.16-2.24-9.02-3.88-4.01-2.31-8.14-4.34-12.68-5.44-3.28-.79-6.5-.51-9.79.19-.06.77-.11,1.49-.17,2.32.91-.04,1.7-.03,2.46-.12,4.07-.51,7.99.15,11.69,1.82,2.41,1.09,4.65,2.57,6.99,3.83,1.61.87,3.21,1.83,4.91,2.47,2.49.93,5.06,1.62,7.61,2.37,1.44.42,2.93.48,4.42.29,2.13-.28,4.26-.6,6.4-.87,3.58-.45,6.9-1.66,10.14-3.17,1.29-.61,1.3-1.39.74-2.48-.46-.91-.93-1.81-1.39-2.71-3.22-6.32-4.26-13.04-3.62-20.06.47-5.15,2.17-9.91,4.81-14.34.22-.37.41-.76.52-1.17.25-.87-.06-1.39-.96-1.49-.49-.05-1.02.05-1.49.2-1.11.37-2.2.81-3.3,1.22-2.27.84-4.51,1.73-6.94,2.12-3.76.6-7.49,1.1-11.31.36-3.28-.64-6.5-1.43-9.5-2.91-2.2-1.09-4.36-2.27-6.5-3.5-3.17-1.83-6.56-2.93-10.2-3.24-1.44-.12-2.89-.25-4.33-.3-.99-.03-1.15.19-1.13,1.18.01.45.08.9.12,1.38.97.11,1.82.2,2.68.3,2.61.3,5.2.76,7.63,1.78,2.2.92,4.31,2.04,6.46,3.08,3.09,1.5,6.12,3.16,9.5,3.97,4.28,1.03,8.57,1.81,13,1.04,2.78-.48,5.55-.92,8.26-1.74,1-.3,2.04-.44,3.28-.7Z"></path></svg>