<svg xmlns="http://www.w3.org/2000/svg" id="Layer_1" data-name="Layer 1" viewBox="0 0 326.46 337.84"><defs><style>      .cls-1 {        fill: #bd302b;        stroke-width: 0px;      }    </style></defs><path class="cls-1" d="M89.25,93.92c.08.62.16,1.23.23,1.85.12,1.08.36,1.35,1.42,1.51.15.02.31.04.47.05,2.94.17,3.92-.22,4.85-3.18,1.09-3.46,2.24-6.9,3.34-10.36.87-2.75,1.7-5.52,2.56-8.28.58-1.87.89-2.08,2.84-2,.23,0,.47.03.7.05.8.05,1.27.45,1.5,1.23.56,1.87,1.16,3.72,1.76,5.58.93,2.9,1.86,5.8,2.79,8.7.59,1.86,1.2,3.71,1.77,5.58.61,2.01,1.27,2.57,3.33,2.57,8.01-.01,16.01-.04,24.02-.06.31,0,.63-.03.94.01.86.12,1.15.74.61,1.41-.51.63-1.1,1.23-1.75,1.71-2.91,2.16-5.86,4.28-8.8,6.41-2.62,1.9-5.26,3.78-7.89,5.68-.85.62-1.7,1.25-2.5,1.93-1.02.85-1.16,1.63-.71,2.92.7,2.03,1.35,4.07,2.02,6.11.73,2.23,1.44,4.46,2.17,6.68.88,2.71,1.77,5.41,2.67,8.12.36,1.07.74,2.14,1.1,3.21.09.26.16.53.18.79.03.61-.26.89-.85.8-.34-.05-.7-.17-.98-.35-1.06-.71-2.11-1.45-3.14-2.21-1.63-1.2-3.24-2.44-4.87-3.65-2.5-1.86-5-3.73-7.51-5.58-1.79-1.32-3.58-2.63-5.4-3.92-1-.71-1.59-.72-2.56-.02-1.96,1.42-3.88,2.89-5.83,4.33-.56.42-1.18.77-1.75,1.17-.82.58-1.12,2.54-.46,3.27.14.16.61.21.82.1.89-.47,1.79-.97,2.61-1.56,1.58-1.14,3.1-2.36,4.65-3.55.94-.72,1.36-.72,2.29-.03,3.83,2.83,7.66,5.65,11.5,8.47,1.92,1.41,3.84,2.81,5.79,4.18,1.08.76,2.21,1.47,3.34,2.15,2.53,1.52,5.45-1.33,5.17-3.46-.16-1.19-.3-2.41-.66-3.55-1.32-4.21-2.7-8.4-4.09-12.58-.76-2.29-1.63-4.55-2.4-6.85-.91-2.69-.57-3.06,1.48-4.47,2.92-2.02,5.78-4.11,8.65-6.2,2.74-2,5.47-4.02,8.2-6.04,1.1-.82,2.08-1.74,2.87-2.89,1.67-2.43-.52-5.54-3.08-5.54-4.84,0-9.68-.15-14.52-.19-3.12-.03-6.25.01-9.37,0-2.69,0-2.39-.45-2.94-2.07-.84-2.48-1.62-4.97-2.43-7.46-.82-2.52-1.64-5.05-2.45-7.57-.26-.82-.47-1.65-.69-2.48-.14-.53.1-.84.63-.89.62-.06,1.25-.1,1.87-.11,2.57-.06,5.15-.11,7.72-.18,1.13-.03,2.26-.12,3.39-.12,15.39,0,30.78,0,46.17.01,1.05,0,2.11-.04,3.16,0,1.23.06,1.53.42,1.35,1.63-.53,3.59-1.01,7.19-1.65,10.76-.76,4.26-1.57,8.52-2.54,12.74-.83,3.61-1.88,7.17-2.87,10.74-.57,2.07-1.17,4.13-1.86,6.16-.82,2.4-1.69,4.78-2.63,7.13-1.67,4.16-3.39,8.31-5.15,12.44-.64,1.5-1.41,2.95-2.15,4.41-1.28,2.5-2.56,5-3.89,7.47-1.02,1.89-2.09,3.75-3.19,5.59-1.36,2.28-2.74,4.54-4.17,6.78-.69,1.08-1.49,2.1-2.28,3.11-.72.93-1.7,1.51-2.84,1.73-2.91.56-5.82,1.19-8.75,1.57-3.6.47-7.23.7-10.84,1.06-.5.05-1.01.15-1.47.34-.59.26-.68.7-.32,1.24.44.66,1.08,1.05,1.85,1.1,1.24.07,2.49.13,3.73.06,2.26-.12,4.52-.26,6.77-.53,1.89-.23,3.77-.66,5.65-1.01.15-.03.3-.08.46-.1.49-.07,1.08-.3,1.41.2.35.53-.26.83-.53,1.16-2.07,2.54-4.16,5.06-6.23,7.6-.27.33-.53.68-.75,1.04-.48.77-.21,1.54.63,1.86,1.12.42,1.63.25,2.45-.66,2.77-3.08,5.31-6.34,7.67-9.74.51-.74,1.09-1.43,1.61-2.16.92-1.28,2.3-1.83,3.69-2.35,1.46-.55,2.93-1.06,4.41-1.56,4.29-1.44,8.23-3.57,12.02-6,2.69-1.72,5.36-3.51,7.88-5.47,4.51-3.49,8.74-7.32,12.61-11.51,1.8-1.94,3.5-4,5.09-6.11,1.95-2.58,3.79-5.24,5.58-7.94,1.12-1.69,2.04-3.5,3.03-5.27.19-.34.26-.73.39-1.1.2-.57-.01-.98-.49-1.3-.48-.32-.99-.38-1.4,0-.53.5-1.06,1.05-1.46,1.66-2.16,3.29-4.23,6.64-6.42,9.92-3.38,5.05-7.5,9.46-11.89,13.65-2.38,2.28-5,4.24-7.65,6.16-2.4,1.74-4.77,3.53-7.25,5.16-1.76,1.15-3.64,2.12-5.52,3.08-1.77.91-3.59,1.72-5.4,2.56-.57.26-1.16.47-1.75.66-.19.06-.56.03-.63-.08-.11-.2-.14-.54-.04-.74.5-1.01,1.01-2.02,1.59-2.99,1.34-2.24,2.8-4.41,4.07-6.69,2.05-3.68,4.08-7.37,5.92-11.16,1.76-3.61,3.36-7.3,4.86-11.03,1.84-4.6,3.59-9.24,5.21-13.92,1.07-3.09,1.83-6.29,2.73-9.45,1.07-3.79,2.13-7.59,2.81-11.48.42-2.38.96-4.74,1.43-7.12.65-3.34,1.06-6.7,1.34-10.09.05-.66.18-1.31.25-1.97.06-.59.38-.94.95-1.03.62-.09,1.24-.19,1.86-.18,6.95.07,13.9.13,20.85.25,1.79.03,3.58.25,5.37.37.66.04,1.33.04,1.99.03.6-.02.93-.37.97-.96.03-.39.04-.78,0-1.17-.09-.78-.3-1.03-1.07-1.16-.57-.1-1.16-.14-1.75-.14-8.44-.02-16.87-.03-25.31-.04-.62,0-1.25,0-1.87-.03-.97-.07-1.25-.33-1.22-1.33.06-1.83.22-3.66.28-5.5.13-4.14.24-8.27.33-12.41.02-.91-.33-1.25-1.24-1.37-.46-.06-.94-.06-1.4-.06-18.16-.04-36.32-.07-54.48-.11-4.96,0-9.92-.02-14.88-.03-1.05,0-1.33-.35-.88-1.28.39-.8.84-1.6,1.41-2.28,2.39-2.83,4.79-5.66,7.29-8.4,1.55-1.7,3.23-3.28,4.94-4.82,2.32-2.09,4.68-4.14,7.09-6.12,3.53-2.9,7.19-5.64,11.14-7.96,4.48-2.63,9.08-5.03,13.87-7.07,3.99-1.7,8.03-3.23,12.15-4.58,4.53-1.48,9.13-2.72,13.77-3.77,5.22-1.18,10.49-2.07,15.83-2.51,5.8-.49,11.62-.71,17.43-.64,5,.07,10,.2,14.96.86,4.1.55,8.2,1.17,12.25,1.98,4.59.92,9.17,1.95,13.68,3.18,3.91,1.06,7.75,2.41,11.59,3.72,4.7,1.6,9.19,3.7,13.68,5.82,3.5,1.65,6.93,3.43,10.21,5.49,3.5,2.2,7.1,4.26,10.5,6.61,4.55,3.15,9.1,6.33,13.17,10.13,1.91,1.78,4.01,3.35,6.05,4.98,1.03.82,1.06,1.33.18,2.29-1.29,1.41-2.54,2.86-3.74,4.34-1.89,2.33-3.73,4.71-5.59,7.07-2.46,3.13-4.9,6.27-7.37,9.39-1.65,2.08-3.34,4.13-4.99,6.21-2.91,3.67-5.8,7.35-8.72,11.01-2.36,2.96-4.77,5.88-7.1,8.86-1.25,1.59-2.42,3.25-3.58,4.91-.76,1.1-1.48,1.29-2.54.58-3.38-2.25-6.77-4.48-10.16-6.7-3.89-2.55-7.95-4.8-12.15-6.81-3.35-1.61-6.79-3-10.3-4.19-3.25-1.09-6.55-2.09-9.87-2.94-3.59-.92-7.24-1.61-10.95-1.88-2.8-.21-5.6-.49-8.4-.67-2.34-.15-2,.18-2.15,1.89-.53,5.83-1.11,11.66-2.44,17.38-.6,2.58-1.11,5.19-1.84,7.74-.73,2.55-1.62,5.05-2.55,7.54-.89,2.37-1.93,4.68-2.9,7.03-.21.5-.42,1.01-.57,1.53-.33,1.18-.16,1.49.99,1.97,1.88.77,3.76,1.52,5.65,2.28,3.73,1.5,7.46,3.01,11.19,4.49,4.35,1.73,8.71,3.44,13.07,5.15,4.11,1.61,8.21,3.23,12.32,4.83,3.86,1.5,7.75,2.92,11.58,4.47,5.03,2.04,10.05,4.09,15.01,6.29,3.46,1.53,6.87,3.19,10.18,5.02,4.27,2.36,8.5,4.81,12.34,7.85,4.2,3.32,8.27,6.79,11.82,10.81,2.37,2.69,4.75,5.39,6.93,8.24,1.54,2,2.75,4.25,4.09,6.41.56.89,1.08,1.81,1.58,2.74,2.39,4.4,4.28,9.04,5.82,13.78,1.11,3.4,1.88,6.94,2.53,10.46,1.68,9.17,2.19,18.44,1.96,27.76-.07,2.86-.37,5.69-.96,8.49-.85,4.05-1.74,8.09-2.62,12.13-.67,3.07-1.88,5.94-3.04,8.84-1.58,3.92-3.38,7.73-5.43,11.41-1.5,2.69-3.26,5.23-5.01,7.77-1.84,2.67-3.76,5.27-5.72,7.85-.94,1.24-2.01,2.4-3.12,3.49-2.91,2.83-5.76,5.73-8.94,8.27-4.7,3.75-9.53,7.34-14.65,10.49-5.23,3.22-10.8,5.79-16.46,8.15-2.41,1-4.82,2.05-7.32,2.81-4.18,1.27-8.41,2.39-12.65,3.43-3.75.92-7.53,1.76-11.34,2.41-6.35,1.08-12.7,2.2-19.17,2.25-4.37.03-8.75.19-13.12.11-7.26-.13-14.51-.62-21.71-1.67-5.1-.74-10.19-1.54-15.2-2.77-4.13-1.02-8.27-2.03-12.33-3.27-4.89-1.49-9.73-3.15-14.54-4.88-2.79-1-5.48-2.26-8.21-3.42-1.79-.76-3.61-1.49-5.35-2.37-3.09-1.58-6.14-3.24-9.18-4.91-2.12-1.16-4.24-2.34-6.31-3.59-2.3-1.39-4.56-2.86-6.82-4.33-2.55-1.66-5.1-3.33-7.6-5.07-1.18-.82-2.25-1.81-3.39-2.69-2.53-1.96-5.08-3.89-7.6-5.85-.37-.28-.69-.63-1.01-.97-.68-.69-.71-1.06-.08-1.8.63-.74,1.33-1.42,1.96-2.17,2.38-2.85,4.74-5.7,7.1-8.56.75-.9,1.46-1.83,2.21-2.73,1.8-2.16,3.63-4.29,5.41-6.46,1.13-1.38,2.2-2.82,3.28-4.2-.23-.54-.63-.38-.95-.38-6.17-.03-12.34-.04-18.51-.07-7.19-.04-14.37-.08-21.56-.13-.94,0-1.87.02-2.81-.04-1.13-.07-1.82-1.5-1.17-2.43.16-.22.49-.39.77-.45.37-.08.78-.04,1.17-.04,6.52,0,13.05.04,19.57-.01,5.08-.04,10.15-.23,15.23-.3,3.12-.04,6.25.03,9.37.04.35,0,.71-.07,1.05-.04,1.27.13,2-.66,2.7-1.53,1.92-2.41,3.86-4.81,5.77-7.22.56-.7,1.09-1.42,1.61-2.15.12-.17.16-.41.26-.68-1.03,0-1.95,0-2.88,0-4.76,0-9.53,0-14.29-.03-7.85-.05-15.7-.13-23.54-.2-.27,0-.55,0-.82-.03-1.1-.12-1.81-1.17-1.41-2.2.12-.31.49-.58.81-.74.26-.13.61-.11.92-.11,10.43-.08,20.85-.16,31.28-.23.66,0,1.33,0,1.99.01.52,0,.8-.26.84-.77.03-.31.06-.62.06-.93.02-7.54.07-15.07.06-22.61,0-5.31-.08-10.62-.13-15.93-.01-1.76-.02-3.52-.03-5.27,0-.39-.04-.78-.05-1.17-.02-.78-.42-1.12-1.17-1.37-1.85-.6-3.7-1.23-5.48-2.01-2.27-1-4.23-2.51-6.03-4.2-3.5-3.28-6.98-6.6-10.35-10.01-3.51-3.55-6.74-7.36-9.71-11.4-1.17-1.6-2.33-3.22-3.87-4.53-1.26-1.08-2.63-1.95-4.16-2.58-1.26-.52-2.53-1.02-3.83-1.46-5.34-1.81-10.13-4.63-14.77-7.77-4.27-2.9-8.25-6.15-12.04-9.66-3.33-3.08-6.55-6.26-9.37-9.82-1.38-1.74-2.66-3.55-3.91-5.39-1.31-1.93-2.6-3.89-3.78-5.91-1.22-2.09-2.33-4.24-3.4-6.41-.93-1.89-1.81-3.81-2.57-5.77-1.27-3.27-2.56-6.54-3.59-9.89-1.08-3.5-2.02-7.06-2.72-10.65-1.2-6.14-1.95-12.34-1.96-18.61,0-.58-.08-1.17-.1-1.75-.02-.85.23-1.13,1.05-1.22.27-.03.55-.03.82-.03,9.37,0,18.74,0,28.11-.01,1.17,0,1.37-.2,1.26-1.27-.52-5.1-.58-10.21-.66-15.33-.01-.78-.03-1.56-.05-2.34-.04-1.25.28-1.59,1.57-1.58,4.76.01,9.53.05,14.29.05,12.93,0,25.86.01,38.78-.03,6.25-.02,12.5-.16,18.74-.25,1.03-.01,1.25.35.77,1.29-.22.43-.44.87-.75,1.5.65.07,1.09.16,1.53.16,11.64,0,23.28-.05,34.92-.04,9.49,0,18.98.05,28.47.09,1.87,0,3.75.06,5.62.11,1.15.03,1.44.31,1.44,1.48,0,.62-.09,1.25-.13,1.87-.27,4.36-.53,8.73-.81,13.09-.07,1.09-.33,1.38-1.44,1.4-2.3.04-4.61.03-6.91.03-14.22,0-28.43,0-42.65-.04-2.69,0-5.38-.27-8.07-.36-1.48-.05-2.97-.06-4.45,0-1.61.06-2.99-.3-4.06-1.62-.41-.5-1.01-.85-1.54-1.25-.63-.47-1.34-.51-1.99-.11-.79.49-1.62.98-2.24,1.65-.82.89-1.74,1.26-2.9,1.25-.94,0-1.87.04-2.81.06-1.15.02-1.8.66-2.05,1.72-.13.56-.18,1.13-.28,1.82.57.06,1.03.13,1.48.14,1.05.04,2.11.03,3.16.08,1.09.06,1.3.37.95,1.42-.34,1.04-.78,2.04-1.11,3.08-1,3.2-1.97,6.42-2.95,9.62-.52,1.68-1.07,3.35-1.57,5.03-.24.78-.74,1.19-1.53,1.2-.94.02-1.87,0-2.81,0,.07-.5.15-1,.2-1.5.09-.85.07-1.73.25-2.56.79-3.78,1.64-7.55,2.46-11.32.26-1.18.53-2.36.77-3.55.23-1.15,0-1.42-1.13-1.46-1.64-.05-3.28-.12-4.92-.14-7.07-.09-14.14-.2-21.2-.24-4.49-.03-8.98.06-13.47.09-5.12.04-10.23.07-15.35.11-1.41.01-1.59.17-1.47,1.56.16,1.83.31,3.66.61,5.47.76,4.5,1.5,9.01,2.44,13.48.86,4.08,1.92,8.13,2.96,12.17.6,2.34,1.3,4.66,2.04,6.96.8,2.49,1.65,4.96,2.56,7.41,1.13,3.03,2.3,6.05,3.53,9.04.84,2.05,1.78,4.08,2.75,6.08,1.33,2.74,2.7,5.46,4.11,8.15,1.09,2.07,2.23,4.12,3.41,6.14,2.12,3.64,4.25,7.28,6.47,10.86.9,1.46,2.26,2.5,3.98,2.89,1.37.31,2.75.58,4.13.76,4.22.55,8.45,1.05,12.67,1.57,1.51.19,3.02.38,4.52.63.34.06.77.29.93.57.8,1.35.13,2.49-1.43,2.54-.08,0-.16,0-.23,0-4.18,0-8.35-.19-12.49-.84-1.31-.21-2.63-.39-3.94-.53-.63-.07-1.31-.25-1.94.34.49,1.04,1.13,1.97,1.86,2.82,1.66,1.92,3.37,3.78,5.06,5.67,3.3,3.69,6.52,7.48,10.22,10.78,1.95,1.74,3.95,3.43,6.07,4.95,1.74,1.25,3.67,2.23,5.84,2.6,5.28.89,10.05-.29,14.1-3.78,2.51-2.16,4.8-4.58,7.16-6.91,1.83-1.81,3.62-3.66,5.44-5.48.67-.67.69-1.13-.07-1.74-1.65-1.31-3.34-2.56-5-3.87-1.96-1.55-3.91-3.1-5.82-4.71-.58-.49-.96-1.23-1.49-1.79-4.37-4.59-8.34-9.49-11.85-14.77-2.97-4.47-5.49-9.16-7.56-14.1-.33-.79-.69-.91-1.45-.42-.69.45-1.36.91-2.02,1.41-2.92,2.22-5.86,4.42-9.1,6.17-.64.35-1.36.63-2.07.75-2.42.41-4.43-1.48-4.2-3.93.08-.89.22-1.79.47-2.65.67-2.32,1.39-4.64,2.14-6.94,1.25-3.82,2.53-7.63,3.8-11.45.33-1,.76-1.97,1.02-2.99.38-1.46.02-2.16-1.28-2.9-.27-.15-.55-.3-.8-.48-2.81-2.1-5.6-4.23-8.42-6.31-2.57-1.9-5.2-3.73-7.74-5.68-1.01-.77-1.89-1.73-2.79-2.65-1.08-1.1-.95-2.38-.51-3.72.46-1.4,1.33-2.25,2.85-2.36,1.64-.12,3.27-.35,4.9-.35,6.01.01,12.02.1,18.04.16ZM113.41,247.25c.61-.73,1.02-1.22,1.42-1.72,2.85-3.47,5.7-6.93,8.55-10.4.59-.72,1.16-1.47,1.79-2.17.58-.65,1.05-.69,1.75-.22.77.52,1.53,1.08,2.28,1.63,1.7,1.25,3.37,2.53,5.09,3.75,1.59,1.13,3.24,2.17,4.83,3.29,3.92,2.78,8.08,5.18,12.29,7.48,4.15,2.26,8.46,4.22,12.86,5.93,3.93,1.53,7.92,2.88,11.91,4.23,4.41,1.49,8.91,2.64,13.53,3.28,5.11.7,10.24,1.1,15.41,1.04,5.93-.08,11.75-.81,17.43-2.57,2.47-.77,4.84-1.83,6.96-3.31,3.26-2.28,5.79-5.24,7.4-8.9.6-1.38,1.15-2.85,1.38-4.33.72-4.63-.09-9.02-2.53-13.06-1.41-2.33-3.11-4.39-5.5-5.8-.57-.34-1.14-.68-1.69-1.05-3.53-2.41-7.34-4.31-11.26-5.97-3.99-1.69-8.02-3.27-12.02-4.93-3.21-1.32-6.41-2.68-9.61-4.02-3.31-1.38-6.64-2.74-9.95-4.13-5.39-2.27-10.77-4.58-16.17-6.85-3.09-1.3-6.21-2.56-9.31-3.84-1.33-.55-2.67-1.1-3.98-1.69-2.7-1.23-5.38-2.5-8.08-3.73-3.74-1.69-7.42-3.47-10.88-5.69-1.21-.78-2.48-1.48-3.78-2.1-1.32-.63-1.87-.45-2.87.64-.69.74-1.34,1.52-2.07,2.22-3.21,3.08-6.41,6.17-9.67,9.2-2.37,2.2-5.08,3.89-8.14,4.98-.95.34-1.96.53-2.93.82-1.08.32-1.22.51-1.28,1.66,0,.16,0,.31-.01.47-.04,4.26-.12,8.51-.12,12.77,0,5.23.06,10.46.12,15.7.06,5.27.14,10.54.23,15.81.02,1.38.21,1.55,1.59,1.54,1.13,0,2.26-.09,3.4-.1.48,0,.96.1,1.7.19-.72,1.01-1.28,1.79-1.89,2.65.65.42,1.24.42,1.81.42,1.64.02,3.28.02,4.92,0,2.5-.02,5-.09,7.5-.1,6.29-.02,12.58-.02,18.86-.04.43,0,.86-.02,1.28-.1.49-.09.86-.37.94-.91.09-.57-.14-1-.63-1.27-.27-.15-.57-.26-.87-.31-.69-.1-1.4-.2-2.09-.2-4.06-.03-8.12-.04-12.18-.03-5.27,0-10.54.02-15.82.02-.52,0-1.04-.1-1.87-.18ZM17.26,73.18c0,.06,0,.12,0,.18-3.9,0-7.81-.02-11.71,0-2.06.02-2.17.17-2.07,2.24.29,6.13,1.12,12.19,2.43,18.2.97,4.43,2.21,8.77,3.87,12.99.91,2.32,1.88,4.62,2.9,6.9.65,1.46,1.38,2.89,2.15,4.28,1.09,1.98,2.22,3.94,3.41,5.86,1.27,2.05,2.56,4.11,3.99,6.04,1.67,2.25,3.44,4.45,5.3,6.54,2.28,2.56,4.64,5.06,7.1,7.45,1.56,1.51,3.33,2.83,5.08,4.12,2.57,1.9,5.19,3.73,7.84,5.52,3.27,2.21,6.84,3.9,10.36,5.68.52.26,1.05.53,1.59.74.53.21,1.15.54,1.62-.02.45-.52.03-1.05-.24-1.5-1.05-1.78-2.16-3.52-3.2-5.31-1.79-3.1-3.56-6.22-5.3-9.35-.61-1.09-1.15-2.22-1.66-3.35-1.21-2.7-2.43-5.4-3.58-8.13-1.38-3.27-2.77-6.54-4.01-9.86-1.25-3.36-2.38-6.77-3.48-10.19-.82-2.56-1.59-5.15-2.25-7.76-.95-3.82-1.86-7.66-2.63-11.52-.83-4.13-1.52-8.29-2.21-12.45-.33-2-.5-4.03-.79-6.03-.13-.9-.31-1.04-1.2-1.15-.54-.07-1.09-.12-1.63-.12-3.9-.01-7.81,0-11.71,0ZM102.44,52.58c-.79-.06-1.33-.13-1.86-.13-6.24-.07-12.49-.16-18.73-.18-11.55-.04-23.11-.04-34.66-.03-4.02,0-8.04.09-12.06.16-1.25.02-1.37.19-1.3,1.37.27,4.87.53,9.74.8,14.61.08,1.39.3,1.6,1.71,1.62,7.81.08,15.61.25,23.42.2,9.99-.06,19.98-.3,29.97-.49,1.44-.03,2.87-.22,4.31-.37.64-.06,1.01-.45,1.25-1.07,1.57-4.08,3.34-8.07,5.43-11.91.45-.82.86-1.66,1.26-2.51.16-.34.26-.7.47-1.28ZM205.73,77.4c0-.43.02-.86,0-1.29-.04-.96-.33-1.25-1.27-1.31-.23-.02-.47-.02-.7,0-2.09.23-4.2.38-6.28.72-1.88.3-3.76.69-5.59,1.23-2.83.84-5.36,2.34-7.76,4.02-1.89,1.33-3.71,2.76-4.98,4.72-.65,1-1.05,2.16-1.63,3.22-.78,1.44-1.15,2.97-1.12,4.61,0,.43-.07.86-.06,1.29.04,1.64-.02,3.29.19,4.9.16,1.21.58,2.43,1.1,3.56,1.33,2.9,3.54,5.11,5.97,7.1,2.49,2.04,5.24,3.67,8.12,5.08.73.36,1.51.64,2.29.87,1.11.33,1.64.01,2.07-1.09.63-1.59,1.26-3.19,1.93-4.77,1.91-4.54,3.57-9.17,4.79-13.94,1.59-6.21,2.6-12.53,2.93-18.94ZM81.31,142.76c.64-.21,1.06-.27,1.39-.48.56-.35,1.07-.79,1.57-1.22,2.61-2.23,5.28-4.39,8.19-6.22,1.32-.83,1.58-1.32,1.21-2.8-.75-3.03-1.62-6.03-2.32-9.07-.62-2.69-1.24-5.41-1.55-8.15-.38-3.33-.46-6.69-.63-10.04-.09-1.79-.11-3.59-.17-5.38-.05-1.5-.31-1.77-1.83-1.77-2.34,0-4.68.08-7.02.05-3.71-.05-7.41-.16-11.11-.24-.57-.01-1.17-.14-1.65.35-.02.83.34,1.42,1,1.87,1.68,1.14,3.37,2.26,5.01,3.45,2.71,1.97,5.4,3.97,8.08,5.98,2.24,1.68,4.46,3.41,6.7,5.09.71.53.97,1.19.85,2.04-.07.5-.14,1.01-.28,1.49-.53,1.88-1.06,3.75-1.62,5.62-.77,2.54-1.55,5.07-2.36,7.59-.91,2.82-1.86,5.62-2.79,8.44-.33.99-.56,2.01-.66,3.39ZM98.92,265.45c.75.06,1.36.16,1.96.16,2.65-.02,5.31-.08,7.96-.09,7.85-.03,15.7-.04,23.55-.05,8.86-.01,17.73-.02,26.59-.03.54,0,1.11,0,1.63-.11.96-.21,1.26-1.02.82-1.9-.42-.85-1.19-.78-1.92-.79-6.4-.05-12.8-.12-19.2-.13-6.95,0-13.89.06-20.84.1-5.43.03-10.86.16-16.28.04-1.93-.04-3.21.5-4.01,2.2-.05.1-.09.21-.26.59Z"></path></svg>
