<?xml version="1.0" encoding="utf-8"?>
<!-- Generator: Adobe Illustrator 27.6.1, SVG Export Plug-In . SVG Version: 6.00 Build 0)  -->
<svg version="1.1" id="Layer_1" xmlns="http://www.w3.org/2000/svg" xmlns:xlink="http://www.w3.org/1999/xlink" x="0px" y="0px"
	 viewBox="0 0 673.1 226.9" style="enable-background:new 0 0 673.1 226.9;" xml:space="preserve">
<style type="text/css">
	.st0{fill:#498BC9;}
	.st1{fill:#45A041;}
	.st2{enable-background:new    ;}
	.st3{fill:#FFFFFF;}
	.st4{opacity:0.3;fill:#3A8DDE;enable-background:new    ;}
	.st5{opacity:0.7;}
	.st6{clip-path:url(#SVGID_00000016069415666252244420000011680784381658309817_);}
	.st7{clip-path:url(#SVGID_00000165955583265188328240000010768110221597812113_);}
	.st8{clip-path:url(#SVGID_00000052823843284878386390000018085549697350409393_);}
	.st9{clip-path:url(#SVGID_00000078728431400428457540000014845548995923901596_);}
	.st10{clip-path:url(#SVGID_00000157993326772003654170000018245639526451646604_);}
	.st11{fill:#46A147;}
	.st12{clip-path:url(#SVGID_00000013156413752734419170000012649376372095125395_);}
	.st13{clip-path:url(#SVGID_00000154419792148040969760000004014089554365356930_);}
	.st14{clip-path:url(#SVGID_00000088817396000015570900000013221970200862739094_);}
	.st15{clip-path:url(#SVGID_00000145753345361771480650000009993417597723958716_);}
	.st16{clip-path:url(#SVGID_00000013170135031383858660000015580190039261790359_);}
	.st17{clip-path:url(#SVGID_00000056395747728684411780000005463905320028347327_);}
	.st18{clip-path:url(#SVGID_00000151512038120808063160000006980401524221363113_);}
	.st19{clip-path:url(#SVGID_00000061467624542642034620000000111743339114868397_);}
</style>
<g>
	<path class="st0" d="M364.5,133c0,3.6-1.9,5.4-5.6,5.4c-1.5,0-2.8-0.5-3.8-1.6c-1-1-1.5-2.3-1.5-3.8V95.6c0-6.5-2.2-11-6.7-13.5
		c-2.1-1.2-4.4-1.7-7-1.7c-9.6,0-14.5,5.1-14.5,15.2V133c0,3.4-1.9,5.1-5.5,5.1c-1.5,0-2.8-0.5-3.8-1.4c-1-0.9-1.5-2.2-1.5-3.6v-37
		c0-5.4-1.3-9.3-4-11.9c-2.7-2.6-6.1-3.9-10-3.8c-2.5,0-4.9,0.6-7.1,1.6c-4.7,2.2-7,6.5-7,12.8V133c0,1.6-0.5,2.8-1.5,3.8
		c-1,1-2.3,1.5-3.9,1.5c-1.5,0-2.8-0.5-3.8-1.5c-1-1-1.5-2.3-1.5-3.8V76.2c0-1.5,0.5-2.8,1.7-3.7c1.1-0.9,2.4-1.4,3.9-1.4
		c3.5,0,5.2,1.9,5.2,5.6v2.1h0.2c4.2-5.4,9.9-8,16.9-7.9c7.5,0.1,13.4,3.8,17.7,11.1c3-4.2,6.1-7.1,9.5-8.7
		c3.5-1.7,7.2-2.5,11.3-2.4c4,0,7.7,1.1,11.2,3c7.5,4.2,11.2,11.1,11.2,20.9L364.5,133L364.5,133z"/>
	<path class="st0" d="M423,119.1c0,3.3-1,6.4-2.8,9.4c-1.8,2.9-4.5,5.2-8.1,7.1c-3.7,1.9-8.2,2.8-13.4,2.8c-8.5,0-15.7-2.4-21.5-7.3
		c-1.7-1.2-2.7-2.9-3-5.3c0-1.3,0.5-2.5,1.4-3.4c0.9-0.9,2-1.4,3.4-1.4c1.5,0,3.9,1.1,7.1,3.4c1.5,1.1,2.6,1.8,3.3,2.1
		c2.7,1.5,5.7,2.4,9.1,2.5c3.3,0.1,6.5-0.6,9.4-2.2c2.7-1.4,4.1-3.7,4.1-6.8c0-2.9-1.7-5.4-5-7.4c-2.1-1.3-5.3-2.8-9.5-4.4
		c-4.7-1.9-7.8-3.2-9.3-3.9c-3.4-1.8-6-3.8-8-6.1c-1.9-2.3-2.9-5.2-2.9-8.8c0-6.9,3.4-12.1,10.3-15.6c3.4-1.7,7.2-2.6,11.2-2.7
		c3.8-0.1,7.7,0.6,11.7,2c3.9,1.4,6.7,2.9,8.3,4.5c1.7,1.7,2.6,3.4,2.6,5.1c0,1.3-0.5,2.4-1.5,3.3s-2.1,1.4-3.4,1.6
		c-1.4-0.4-3.4-1.3-6-2.7c-3.5-2-5.5-3.1-6-3.3c-1.4-0.6-2.9-1-4.7-1c-3.8-0.1-6.7,0.7-8.8,2.3c-2,1.6-3.1,3.6-3.2,5.9
		c0.7,3.6,3.4,6.5,8.2,8.7c2,0.9,4.5,1.9,7.3,2.8c2.2,0.8,4.2,1.5,5.9,2.2c5,2.1,8.5,4.4,10.5,6.9C422,112,423.1,115.3,423,119.1z"
		/>
	<path class="st0" d="M487.8,132.8c0,3.7-1.7,5.6-5.1,5.6s-5.1-1.7-5.1-5.1v-4.8h-0.2c-4.7,6.5-10.5,9.8-17.2,9.9
		c-5.4,0.1-10.4-1.3-15.1-4.1c-9.7-5.9-14.5-15.6-14.5-29.3c0-14.4,5-24.5,15.1-30.3c4.4-2.5,8.8-3.7,13.2-3.7
		c7.2,0,13.4,3,18.6,8.9h0.2v-3.6c0-1.5,0.5-2.8,1.4-3.8c1-1,2.2-1.5,3.7-1.5c3.4,0,5.1,1.9,5.1,5.6L487.8,132.8L487.8,132.8z
		 M477.4,104.7c0-10.2-2.8-17.3-8.5-21.4c-2.7-1.9-5.8-2.9-9.3-2.9h-0.2c-5.7,0-10.2,2.3-13.3,7c-3,4.5-4.6,10.3-4.6,17.3
		c0,4.1,0.6,8.1,2,11.9c2.9,8.2,8,12.4,15.5,12.4c6.5,0,11.4-2.5,14.6-7.6C476,117.2,477.4,111.6,477.4,104.7z"/>
</g>
<g>
	<path class="st0" d="M269.1,91.5c0.1,5.8-2.5,10.8-7.8,15s-11.7,6.3-19.3,6.3h-17.9v21.7c0,1.2-0.5,2.2-1.5,2.9
		c-1,0.8-2.3,1.2-3.9,1.2c-1.6,0-2.9-0.4-3.8-1.2c-1-0.8-1.5-1.8-1.5-3.1V74.8c0-3,1.8-4.4,5.3-4.4h21.9c7.9,0,14.6,1.8,20,5.4
		C266.2,79.6,269,84.8,269.1,91.5z M258.2,91.3c0-4.2-1.7-7.5-5-10c-3.4-2.5-7.8-3.8-13.2-3.8h-16v28h15.5c5.5,0,9.9-1.3,13.4-4
		C256.5,98.9,258.2,95.5,258.2,91.3z"/>
</g>
<g>
	<g>
		<path class="st1" d="M216.3,161c1.1,0,4.8,0,4.8,4.1c0,1.6-0.7,3.1-2.1,3.7c-1,0.5-2.1,0.4-2.9,0.4h-1.2v5.9h-1.3V161L216.3,161
			L216.3,161z M214.9,168.3h0.9c1.5,0,4-0.3,4-3.2c0-2.9-2.6-3.1-3.7-3.1h-1.2V168.3z"/>
		<path class="st1" d="M215.2,175.4h-1.9v-14.7h3c3.3,0,5,1.5,5,4.4c0,1.9-0.8,3.3-2.3,4c-0.9,0.4-1.9,0.5-2.8,0.5h-1.1L215.2,175.4
			z M213.9,174.9h0.7v-5.9h1.7c0.7,0,1.7,0,2.6-0.4c1.2-0.6,1.9-1.9,1.9-3.5c0-3.8-3.4-3.8-4.5-3.8h-2.4V174.9z M215.7,168.5h-1.1
			v-6.9h1.4c2.5,0,3.9,1.2,3.9,3.4c0,1.4-0.5,2.4-1.6,2.9C217.7,168.4,216.9,168.5,215.7,168.5z M215.2,168h0.6c1,0,1.8-0.2,2.4-0.5
			c0.9-0.5,1.3-1.3,1.3-2.4c0-2.4-1.8-2.8-3.4-2.8h-0.9L215.2,168z"/>
	</g>
	<g>
		<path class="st1" d="M237.9,167.1V161h1.3v14.1h-1.3v-6.7h-5.2v6.7h-1.3v-13.8l1.3-0.3v6.1L237.9,167.1L237.9,167.1z"/>
		<path class="st1" d="M233,175.4h-1.9v-14.3l1.9-0.5v6.2h4.7v-6.1h1.9v14.7h-1.9v-6.7H233V175.4z M231.7,174.9h0.7v-6.7h5.8v6.7
			h0.7v-13.6h-0.7v6.1h-5.8v-6.1l-0.7,0.2V174.9z"/>
	</g>
	<g>
		<path class="st1" d="M254.2,161l4.4,14.2h-1.4l-1.2-4h-4.9l-1.1,4h-1.3l4.1-13.7L254.2,161z M255.7,170.1l-2.2-7.3l-2,7.3H255.7z"
			/>
		<path class="st1" d="M248.3,175.4l4.2-14.2l1.8-0.6l0.1,0.3l4.5,14.5h-2l-1.2-4h-4.4l-1.1,4H248.3z M253,161.6l-3.9,13.2h0.7
			l1.1-4h5.3l1.2,4h0.8l-4.2-13.5L253,161.6z M251.1,170.4l2.4-8.6l2.6,8.6H251.1z M253.5,163.8l-1.7,6h3.5L253.5,163.8z"/>
	</g>
	<g>
		<path class="st1" d="M271,160.9c0.8,0,2.1,0.1,2.8,0.5c0.6,0.3,1.7,1.2,1.7,3.2c0,1.4-0.6,3.5-2.9,3.9v0c0.8,0.2,1.4,0.2,2.4,2.9
			c0,0.1,0.1,0.2,0.1,0.2l1.2,3.4h-1.6c-0.6-2.4-0.7-2.5-0.7-2.6c-0.9-2.7-1.5-3.3-2.8-3.6h-1.8v6.1h-1.4V161L271,160.9L271,160.9z
			 M269.5,168h1.3c1.2,0,3.5-0.6,3.5-3.3c0-0.4-0.1-1.6-0.8-2.2c-0.6-0.5-1.2-0.6-3.2-0.6h-0.8L269.5,168z"/>
		<path class="st1" d="M276.8,175.4h-2.2l-0.1-0.2c-0.6-2.2-0.7-2.5-0.7-2.5c-0.8-2.6-1.4-3.2-2.6-3.4h-1.4v6.1h-1.9v-14.7h3.1
			c0.2,0,2,0,2.9,0.5c0.7,0.4,1.9,1.3,1.9,3.5c0,1.5-0.6,3.3-2.2,4c0.6,0.3,1.1,0.9,1.8,2.8c0,0.1,0,0.1,0.1,0.2L276.8,175.4z
			 M275,174.8h1l-1.1-3c0-0.1-0.1-0.2-0.1-0.3c-0.8-2.3-1.4-2.5-2-2.6c-0.1,0-0.1,0-0.2-0.1l-0.2-0.1v-0.4l0.2-0.1
			c2.4-0.4,2.6-2.9,2.6-3.7c0-1.9-1-2.7-1.5-3c-0.5-0.3-1.8-0.4-2.7-0.4h-2.6v13.6h0.8v-6.1h2.1c1.5,0.3,2.2,1.1,3,3.8
			C274.4,172.5,274.4,172.6,275,174.8z M270.7,168.3h-1.5v-6.7h1.1c2,0,2.7,0.1,3.4,0.7c0.7,0.6,0.9,1.8,0.9,2.4
			c0,1.3-0.5,2.3-1.4,2.9C272.2,168.3,271.1,168.3,270.7,168.3z M269.8,167.8h1c0.4,0,1.3-0.1,2-0.6c0.8-0.5,1.1-1.4,1.1-2.4
			c0-0.4-0.1-1.5-0.7-2c-0.5-0.4-1-0.5-3-0.5h-0.5V167.8z"/>
	</g>
	<g>
		<path class="st1" d="M287.9,160.9l3.6,12l3.7-12h1.9v14.2h-1.2v-12.9l-3.7,12.9h-1.3l-3.6-12.9v12.9H286v-13.6L287.9,160.9z"/>
		<path class="st1" d="M290.6,175.4l-0.1-0.2l-3.1-10.9v11.1h-1.8v-14.1l2.4-0.7l3.4,11.4l3.5-11.3h2.4v14.7h-1.8v-11.2l-3.2,11.2
			L290.6,175.4z M286.3,174.8h0.6v-12.6l0.5-0.1l3.6,12.7h0.8l3.6-12.7l0.5,0.1v12.6h0.6v-13.6h-1.4l-3.9,12.7l-3.8-12.6l-1.4,0.4
			L286.3,174.8z"/>
	</g>
	<g>
		<path class="st1" d="M312,160.9l4.4,14.2h-1.4l-1.2-4H309l-1.1,4h-1.3l4.1-13.7L312,160.9z M313.6,170.1l-2.2-7.3l-2,7.3H313.6z"
			/>
		<path class="st1" d="M308.1,175.4h-1.9l4.2-14.2l1.8-0.6l0.1,0.3l4.5,14.5h-2l-1.2-4h-4.5L308.1,175.4z M306.9,174.8h0.7l1.1-4
			h5.3l1.2,4h0.8l-4.2-13.5l-1,0.3L306.9,174.8z M308.9,170.4l2.4-8.6l2.6,8.6H308.9z M311.4,163.8l-1.7,6h3.5L311.4,163.8z"/>
	</g>
	<g>
		<path class="st1" d="M332.9,164.8c-0.2-1.1-0.7-3.4-3-3.4c-2.7,0-3.4,3.1-3.4,6.5c0,3.2,0.5,6.4,3.3,6.4c2.5,0,2.9-2.6,3.2-4h1.4
			c-0.3,1.9-1.2,4.8-4.5,4.8c-4.6,0-4.6-5.1-4.6-7c0-2.1,0-7.4,4.8-7.4c3.4,0,4.1,3.2,4.3,4.2L332.9,164.8L332.9,164.8z"/>
		<path class="st1" d="M329.8,175.4L329.8,175.4c-4.9,0-4.9-5.5-4.9-7.3c0-2.1,0-7.7,5-7.7c2.4,0,3.9,1.5,4.5,4.4l0.1,0.3l-0.3,0
			h-1.5l0-0.2c-0.2-1.4-0.8-3.2-2.8-3.2c-1.1,0-2,0.6-2.5,1.8c-0.5,1-0.7,2.5-0.7,4.4c0,4.2,1,6.1,3,6.1c2,0,2.5-1.9,2.9-3.7l0-0.2
			l0.2-0.1h1.7l0,0.3C334.1,173.6,332.4,175.4,329.8,175.4z M329.9,160.9c-4.5,0-4.5,5-4.5,7.2c0,2.9,0.5,6.8,4.4,6.8v0.3v-0.3
			c2.3,0,3.7-1.4,4.2-4.3h-0.8c-0.3,1.5-0.9,4-3.4,4c-3.2,0-3.6-3.8-3.6-6.7c0-2,0.2-3.5,0.7-4.6c0.6-1.4,1.6-2.2,3-2.2
			c2.5,0,3.1,2.4,3.3,3.4h0.7C333.5,163.3,332.8,160.9,329.9,160.9z"/>
	</g>
	<g>
		<path class="st1" d="M350.8,160.9v1.1l-4.8,0v5.3h4.5v1h-4.5v5.6h5.1v1.1h-6.4v-14.2L350.8,160.9z"/>
		<path class="st1" d="M344.4,175.4v-14.7l6.7,0v1.7l-4.8,0v4.8h4.5v1.6h-4.5v5h5.1v1.7L344.4,175.4z M344.9,161.2v13.6h5.8v-0.6
			h-5.1v-6.1h4.5v-0.4h-4.5v-5.9l4.8,0v-0.6L344.9,161.2z"/>
	</g>
	<g>
		<path class="st1" d="M362.7,160.8v9.8c0,1.2,0,3.6,2.6,3.6c1.2,0,1.8-0.5,2.3-1.3c0.3-0.6,0.3-2.5,0.3-2.9v-9.1h1.3v9.2
			c0,0.3,0,1.7-0.2,2.5c-0.2,1-1,2.6-3.7,2.6c-3.9,0-3.9-3.1-3.9-4.8l0-9L362.7,160.8z"/>
		<path class="st1" d="M365.3,175.4L365.3,175.4c-4.2,0-4.2-3.5-4.2-5.1l0-9.2l1.9-0.7v10.2c0,1.6,0.2,3.3,2.3,3.3
			c1,0,1.6-0.3,2-1.2c0.1-0.2,0.3-0.8,0.3-2.7v-9.4h1.9v9.5c0,0.1,0,1.7-0.2,2.5C368.8,174.4,367.5,175.4,365.3,175.4z M361.6,161.5
			l0,8.8c0,2.2,0.3,4.5,3.6,4.5v0.3v-0.3c1.9,0,3-0.8,3.4-2.3c0.2-0.8,0.2-2.4,0.2-2.4v-9h-0.7v8.9c0,1.5-0.1,2.5-0.3,3
			c-0.5,1-1.3,1.5-2.5,1.5c-2.9,0-2.9-2.6-2.9-3.9v-9.4L361.6,161.5z"/>
	</g>
	<g>
		<path class="st1" d="M387.1,160.9v1.1h-3.4v13h-1.4v-13H379v-1.1H387.1z"/>
		<path class="st1" d="M384,175.4h-1.9v-13h-3.3v-1.7h8.7v1.7H384L384,175.4z M382.6,174.8h0.8v-13h3.4v-0.6h-7.5v0.6h3.3
			L382.6,174.8z"/>
	</g>
	<g>
		<path class="st1" d="M398.2,160.9v14.2h-1.3v-13.8L398.2,160.9z"/>
		<path class="st1" d="M398.5,175.4h-1.9l0-14.3l1.9-0.5L398.5,175.4z M397.2,174.8h0.7v-13.5l-0.7,0.2V174.8z"/>
	</g>
	<g>
		<path class="st1" d="M416.5,164.7c-0.2-1.1-0.7-3.4-3-3.4c-2.7,0-3.4,3.1-3.4,6.5c0,3.2,0.5,6.4,3.3,6.4c2.5,0,2.9-2.6,3.2-4h1.4
			c-0.3,1.9-1.2,4.8-4.5,4.8c-4.6,0-4.6-5.1-4.6-7c0-2.1,0-7.4,4.8-7.4c3.4,0,4.1,3.2,4.3,4.1H416.5z"/>
		<path class="st1" d="M413.3,175.3L413.3,175.3c-4.9,0-4.9-5.5-4.9-7.3c0-2.1,0-7.7,5-7.7c2.4,0,4,1.5,4.5,4.4l0.1,0.3l-0.3,0h-1.5
			l0-0.2c-0.2-1.4-0.8-3.2-2.8-3.2c-1.1,0-2,0.6-2.5,1.8c-0.5,1-0.7,2.5-0.7,4.4c0,4.2,1,6.1,3,6.1c2,0,2.5-1.9,2.9-3.7l0-0.2
			l0.2-0.1h1.7l0,0.3C417.7,173.6,416,175.3,413.3,175.3z M413.5,160.9c-4.5,0-4.5,5-4.5,7.2c0,1.9,0,6.8,4.4,6.8v0.3v-0.3
			c2.3,0,3.7-1.4,4.2-4.3h-0.8c-0.3,1.5-0.9,4-3.4,4c-3.2,0-3.6-3.8-3.6-6.7c0-2,0.2-3.5,0.7-4.6c0.6-1.4,1.6-2.2,3-2.2
			c2.5,0,3.1,2.4,3.3,3.4h0.7C417.1,163.2,416.4,160.9,413.5,160.9z"/>
	</g>
	<g>
		<path class="st1" d="M432.1,160.9l4.4,14.2h-1.4l-1.2-4h-4.9l-1.1,4h-1.3l4.1-13.7L432.1,160.9z M433.6,170.1l-2.2-7.3l-2,7.3
			H433.6z"/>
		<path class="st1" d="M428.1,175.4h-1.9l4.2-14.2l1.8-0.6l4.6,14.8h-2l-1.2-4h-4.5L428.1,175.4z M427,174.8h0.7l1.1-4h5.3l1.2,4
			h0.8l-4.2-13.5l-1,0.3L427,174.8z M429,170.3l0.1-0.4l2.3-8.2l2.6,8.6L429,170.3z M431.4,163.8l-1.7,6h3.5L431.4,163.8z"/>
	</g>
	<g>
		<path class="st1" d="M447.4,160.9v13h5.1v1.1h-6.4v-13.7L447.4,160.9z"/>
		<path class="st1" d="M445.8,175.4v-14.2l1.9-0.6v13.1h5.1v1.7H445.8z M446.4,161.5v13.2h5.9v-0.6h-5.1v-12.9L446.4,161.5z"/>
	</g>
	<g>
		<path class="st1" d="M477,160.9l3.6,12l3.7-12h1.9v14.2h-1.2v-12.9l-3.7,12.9H480l-3.6-12.9v12.9h-1.2v-13.6L477,160.9z"/>
		<path class="st1" d="M474.8,175.4v-14.1l2.4-0.7l0.1,0.3l3.4,11.1l3.5-11.3h2.4v14.7h-1.8v-11.2l-3.2,11.2h-1.7l-0.1-0.2
			l-3.1-10.9v11.1L474.8,175.4z M475.4,161.7v13.1h0.6l0-12.6l0.5-0.1l3.6,12.7h0.8l3.6-12.7l0.5,0.1v12.6h0.6v-13.6h-1.4l-3.9,12.7
			l-3.8-12.6L475.4,161.7z"/>
	</g>
	<g>
		<path class="st1" d="M501.2,160.9l4.4,14.2h-1.4l-1.2-4h-4.9l-1.1,4h-1.3l4.1-13.7L501.2,160.9z M502.7,170l-2.2-7.3l-2,7.3H502.7
			z"/>
		<path class="st1" d="M504,175.3l-1.2-4h-4.5l-1.1,4h-1.9l4.2-14.2l1.8-0.6l4.6,14.8H504z M496,174.8h0.7l1.1-4h5.3l1.2,4h0.8
			l-4.2-13.5l-1,0.3L496,174.8z M503,170.3h-5l0.1-0.4l2.3-8.2L503,170.3z M498.8,169.8h3.5l-1.8-6L498.8,169.8z"/>
	</g>
	<g>
		<path class="st1" d="M516.7,160.9l5,12.5v-12.6h1.2V175h-1.7l-4.9-12.1V175h-1.2v-13.7L516.7,160.9z"/>
		<path class="st1" d="M516.6,175.3h-1.8v-14.1l2-0.7l4.5,11.4v-11.4h1.8v14.7H521l-0.1-0.2l-4.4-10.8L516.6,175.3z M515.4,174.8
			h0.6v-11.9l0.5-0.1l4.9,12h1.2v-13.6H522v12.3l-0.5,0.1l-4.9-12.3l-1.2,0.4L515.4,174.8z"/>
	</g>
	<g>
		<path class="st1" d="M537.9,160.9l4.4,14.2h-1.4l-1.2-4h-4.9l-1.1,4h-1.3l4.1-13.7L537.9,160.9z M539.4,170l-2.2-7.3l-2,7.3H539.4
			z"/>
		<path class="st1" d="M532,175.3l4.2-14.2l1.8-0.6l4.6,14.8h-2l-1.2-4h-4.5l-1.1,4H532z M536.7,161.6l-3.9,13.2h0.7l1.1-4h5.3
			l1.2,4h0.8l-4.2-13.5L536.7,161.6z M534.8,170.3l0.1-0.4l2.3-8.2l2.6,8.6L534.8,170.3z M537.2,163.7l-1.7,6h3.5L537.2,163.7z"/>
	</g>
	<g>
		<path class="st1" d="M558.3,164.8c0-0.3-0.4-3.4-2.9-3.4c-1.5,0-2.2,1.3-2.7,2.5c-0.4,1.2-0.4,2.6-0.4,3.5c0,3.4,0.5,4.4,1,5.3
			c1,1.6,2.2,1.5,2.7,1.5c0.8,0,1.6-0.2,2.6-0.9v-4.1h-2.8V168h4v7l-1.3-0.5c-0.7,0.3-1.7,0.6-2.8,0.6c-1.4,0-2.7-0.5-3.5-1.6
			c-0.8-1.1-1.3-2.5-1.3-5.7c0-3.5,0.5-4.6,1.3-5.6c1.2-1.5,2.5-1.5,3.2-1.5c2.4,0,3.9,1.3,4.3,4.1L558.3,164.8L558.3,164.8z"/>
		<path class="st1" d="M555.8,175.4c-1.6,0-2.9-0.6-3.7-1.7c-0.8-1.2-1.4-2.6-1.4-5.9c0-3.5,0.5-4.7,1.3-5.8
			c1.3-1.6,2.8-1.6,3.4-1.6c2.6,0,4.1,1.5,4.6,4.4l0,0.3h-2l0-0.2c-0.1-1-0.6-3.1-2.6-3.1c-1.1,0-1.9,0.8-2.4,2.3
			c-0.4,1.2-0.4,2.5-0.4,3.5c0,3.4,0.4,4.3,0.9,5.1c0.9,1.4,1.9,1.4,2.3,1.4h0.1c0.9,0,1.6-0.2,2.4-0.8v-3.7h-2.8v-1.7h4.6v7.7
			l-1.6-0.6C557.9,175.1,556.8,175.4,555.8,175.4z M555.4,160.9c-0.5,0-1.8,0-2.9,1.4c-0.8,1-1.2,2.2-1.2,5.5c0,3.1,0.5,4.4,1.3,5.6
			c0.7,1,1.8,1.5,3.2,1.5c1,0,2-0.3,2.6-0.6l0.1,0l1,0.4v-6.4H556v0.6h2.8v4.6l-0.1,0.1c-0.9,0.7-1.8,1-2.8,1h-0.1
			c-0.4,0-1.7,0-2.7-1.6c-0.5-0.9-1-1.9-1-5.4c0-1,0-2.4,0.5-3.6c0.6-1.8,1.6-2.7,2.9-2.7c2.3,0,3,2.3,3.2,3.4h0.8
			C558.9,162.1,557.6,160.9,555.4,160.9z"/>
	</g>
	<g>
		<path class="st1" d="M576.6,160.9v1.1l-4.8,0v5.3h4.5v1h-4.5v5.6h5.1v1.1h-6.4v-14.2L576.6,160.9z"/>
		<path class="st1" d="M570.2,175.3v-14.7l6.7,0v1.7l-4.8,0v4.8h4.5v1.6h-4.5v5h5.1v1.7L570.2,175.3z M570.8,161.1v13.6h5.8v-0.6
			h-5.1V168h4.5v-0.4h-4.5v-5.9l4.8,0v-0.6L570.8,161.1z"/>
	</g>
	<g>
		<path class="st1" d="M589.1,160.9l3.6,12l3.7-12h1.9V175h-1.2v-12.9l-3.7,12.9h-1.3l-3.6-12.9V175h-1.2v-13.6L589.1,160.9z"/>
		<path class="st1" d="M588.7,175.3H587v-14.1l2.3-0.7l0.1,0.3l3.4,11.1l3.5-11.3h2.3v14.7h-1.8v-11.2l-3.2,11.2h-1.7l-3.2-11.1
			L588.7,175.3z M587.5,174.8h0.6v-12.6l0.5-0.1l3.6,12.7h0.8l3.6-12.7l0.5,0.1v12.6h0.6v-13.6h-1.4l-3.9,12.7l-3.8-12.6l-1.4,0.4
			L587.5,174.8z"/>
	</g>
	<g>
		<path class="st1" d="M615.6,160.9v1.1l-4.8,0v5.3h4.5v1h-4.5v5.6h5.1v1.1h-6.4v-14.2L615.6,160.9z"/>
		<path class="st1" d="M616.1,175.3h-6.9v-14.7l6.7,0v1.7l-4.8,0v4.8h4.5v1.6H611v5h5.1L616.1,175.3L616.1,175.3z M609.7,174.7h5.8
			v-0.6h-5.1V168l4.5,0v-0.4h-4.5v-5.9l4.8,0v-0.6l-5.5,0L609.7,174.7z"/>
	</g>
	<g>
		<path class="st1" d="M627.7,160.9l5,12.5v-12.6h1.2V175h-1.7l-4.9-12.1V175h-1.2v-13.6L627.7,160.9z"/>
		<path class="st1" d="M627.6,175.3h-1.8v-14.1l2-0.7l4.5,11.4v-11.4h1.8v14.7h-2.1l-0.1-0.2l-4.4-10.8L627.6,175.3z M626.4,174.7
			h0.6v-11.9l0.5-0.1l4.9,11.9h1.2v-13.6H633v12.3l-0.5,0.1l-4.9-12.3l-1.2,0.4L626.4,174.7z"/>
	</g>
	<g>
		<path class="st1" d="M651.9,160.8v1.1h-3.4v13h-1.4v-13h-3.3v-1.1H651.9z"/>
		<path class="st1" d="M648.8,175.3h-1.9v-13h-3.3v-1.7h8.7v1.7h-3.4L648.8,175.3z M647.4,174.7h0.8v-13h3.4v-0.6l-7.5,0v0.6h3.3
			V174.7z"/>
	</g>
	<g>
		<path class="st1" d="M219.3,191.5c0-0.7-0.2-3.3-2.5-3.3c-1.5,0-2.3,1.5-2.3,2.5c0,1.5,1.6,2.4,3.1,3.2c2.3,1.3,3.4,2.5,3.4,4.4
			c0,1.6-1,3.8-3.8,3.8c-2.6,0-4.1-1.7-4.4-4.6h1.3c0.1,1,0.5,3.4,3,3.4c1.7,0,2.6-1.3,2.6-2.6c0-1.8-1.5-2.6-2.9-3.4
			c-2.1-1.2-3.6-2.2-3.6-4.3c0-2,1.5-3.4,3.5-3.4c0.8,0,2.3,0.3,3.1,1.5c0.6,0.9,0.7,2.2,0.7,2.6L219.3,191.5L219.3,191.5z"/>
		<path class="st1" d="M217.1,202.4c-2.7,0-4.4-1.8-4.6-4.8l0-0.3h1.8l0,0.2c0.2,1.4,0.6,3.2,2.8,3.2c1.5,0,2.4-1.1,2.4-2.3
			c0-1.6-1.4-2.4-2.7-3.1c-2.1-1.2-3.7-2.3-3.7-4.5c0-1,0.4-2,1.1-2.6c0.7-0.7,1.6-1,2.7-1c0.5,0,2.3,0.1,3.3,1.6
			c0.7,1,0.8,2.4,0.8,2.8l0,0.3H219l0-0.3c-0.1-2-0.9-3-2.2-3c-0.6,0-1.1,0.3-1.3,0.6c-0.5,0.5-0.7,1.2-0.7,1.6c0,1.3,1.4,2.2,2.8,3
			l0.1,0c2.2,1.2,3.5,2.5,3.5,4.6C221.2,200.3,219.9,202.4,217.1,202.4z M213,197.9c0.3,2.6,1.7,4,4.1,4c2.8,0,3.6-2.3,3.6-3.5
			c0-1.7-0.9-2.8-3.2-4.1l-0.1,0c-1.5-0.9-3.1-1.8-3.1-3.4c0-0.7,0.3-1.5,0.9-2c0.5-0.5,1.1-0.7,1.7-0.7c1.1,0,2.5,0.6,2.7,3.3h0.7
			c0-0.5-0.2-1.5-0.7-2.2c-0.9-1.2-2.4-1.3-2.9-1.3c-0.9,0-1.7,0.3-2.3,0.9s-0.9,1.4-0.9,2.2c0,1.9,1.5,2.9,3.4,4
			c1.4,0.8,3,1.7,3,3.6c0,1.4-1,2.9-2.9,2.9c-1.8,0-2.9-1.1-3.3-3.4L213,197.9L213,197.9z"/>
	</g>
	<g>
		<path class="st1" d="M238.6,191.6c-0.2-1.1-0.7-3.4-3-3.4c-2.7,0-3.4,3.1-3.4,6.5c0,3.2,0.5,6.4,3.3,6.4c2.4,0,2.9-2.6,3.2-4h1.4
			c-0.3,1.9-1.2,4.8-4.5,4.8c-4.6,0-4.6-5.1-4.6-7c0-2.1,0-7.4,4.8-7.4c3.4,0,4.1,3.2,4.3,4.1H238.6z"/>
		<path class="st1" d="M235.4,202.2L235.4,202.2c-4.9,0-4.9-5.5-4.9-7.3c0-1,0-3,0.6-4.6c0.8-2.1,2.3-3.1,4.4-3.1
			c2.4,0,3.9,1.5,4.6,4.4l0.1,0.3l-0.3,0h-1.5l0-0.2c-0.2-1.4-0.8-3.2-2.8-3.2c-2.1,0-3.1,2.1-3.1,6.2c0,4.2,1,6.1,3,6.1
			c2,0,2.5-1.9,2.9-3.7l0-0.2l0.2-0.1h1.7l-0.1,0.3C239.8,200.5,238.1,202.2,235.4,202.2z M235.6,187.7c-1.9,0-3.2,0.9-3.9,2.8
			c-0.6,1.6-0.6,3.4-0.6,4.4c0,2.9,0.4,6.8,4.4,6.8c2.3,0,3.7-1.4,4.2-4.3h-0.8c-0.3,1.5-0.9,4-3.4,4c-3.2,0-3.6-3.8-3.6-6.7
			c0-4.5,1.2-6.8,3.7-6.8c2.5,0,3.1,2.4,3.3,3.4h0.7C239.2,190.1,238.4,187.7,235.6,187.7z"/>
	</g>
	<g>
		<path class="st1" d="M251.6,187.8v14.2h-1.3v-13.8L251.6,187.8z"/>
		<path class="st1" d="M251.9,202.2H250v-14.3l1.9-0.5V202.2z M250.6,201.7h0.7v-13.5l-0.7,0.2V201.7z"/>
	</g>
	<g>
		<path class="st1" d="M268.8,187.8v1.1l-4.8,0v5.3h4.5v1H264v5.6h5.1v1.1h-6.4v-14.2L268.8,187.8z"/>
		<path class="st1" d="M262.4,202.2v-14.7l6.7,0v1.7l-4.8,0v4.8h4.5v1.6h-4.5v5h5.1v1.7L262.4,202.2L262.4,202.2z M262.9,188.1v13.6
			h5.8v-0.6h-5.1V195h4.5v-0.4h-4.5v-5.9l4.8,0v-0.6L262.9,188.1z"/>
	</g>
	<g>
		<path class="st1" d="M281,187.8l5,12.6v-12.6h1.2v14.2h-1.7l-4.9-12.1v12.1h-1.2v-13.7L281,187.8z"/>
		<path class="st1" d="M287.4,202.2h-2.1l-4.5-11v11h-1.8v-14.1l2-0.7l4.5,11.4v-11.4h1.8L287.4,202.2z M285.7,201.7h1.2v-13.6h-0.6
			v12.3l-0.5,0.1l-4.9-12.3l-1.2,0.4v13.2h0.6v-11.9l0.5-0.1L285.7,201.7z"/>
	</g>
	<g>
		<path class="st1" d="M305.5,191.6c-0.2-1.1-0.7-3.4-3-3.4c-2.7,0-3.4,3.1-3.4,6.5c0,3.2,0.5,6.4,3.3,6.4c2.5,0,2.9-2.6,3.2-4h1.3
			c-0.3,1.9-1.2,4.8-4.5,4.8c-4.6,0-4.6-5.1-4.6-7c0-2.1,0-7.4,4.8-7.4c3.4,0,4.1,3.2,4.3,4.2L305.5,191.6L305.5,191.6z"/>
		<path class="st1" d="M302.3,202.2v-0.3v-0.3c2.3,0,3.7-1.4,4.2-4.3h-0.8c-0.3,1.5-0.9,4-3.4,4c-3.2,0-3.6-3.8-3.6-6.7
			c0-4.5,1.2-6.8,3.7-6.8c2.5,0,3.1,2.4,3.3,3.4h0.7c-0.3-1.2-1-3.6-3.9-3.6c-1.9,0-3.2,0.9-3.9,2.8c-0.6,1.6-0.6,3.4-0.6,4.4
			c0,0.9,0,2.7,0.6,4.2c0.7,1.8,1.9,2.6,3.8,2.6L302.3,202.2c-2.1,0-3.5-1-4.3-3c-0.6-1.6-0.6-3.5-0.6-4.4c0-1,0-3,0.6-4.6
			c0.8-2.1,2.3-3.1,4.4-3.1c2.4,0,4,1.5,4.5,4.4l0.1,0.3l-0.3,0h-1.5l0-0.2c-0.2-1.4-0.8-3.2-2.8-3.2c-2.1,0-3.1,2.1-3.1,6.2
			c0,4.2,1,6.1,3,6.1c2,0,2.5-1.9,2.9-3.7l0-0.2l0.2-0.1h1.7l0,0.3C306.6,200.4,305,202.2,302.3,202.2z"/>
	</g>
	<g>
		<path class="st1" d="M323.3,187.8v1.1l-4.8,0v5.3h4.5v1h-4.5v5.6h5.1v1.1h-6.4v-14.2L323.3,187.8z"/>
		<path class="st1" d="M317,202.2v-14.7l6.7,0v1.7l-4.8,0v4.8h4.5v1.6h-4.5v5h5.1v1.7L317,202.2z M317.5,188v13.6h5.8v-0.6h-5.1
			v-6.1h4.5v-0.4h-4.5v-5.9l4.8,0v-0.6L317.5,188z"/>
	</g>
	<g>
		<path class="st1" d="M350.1,187.8l4.4,14.2h-1.4l-1.2-4h-4.9l-1.1,4h-1.3l4.1-13.7L350.1,187.8z M351.6,196.9l-2.2-7.3l-2,7.3
			H351.6z"/>
		<path class="st1" d="M344.2,202.2l4.2-14.2l1.8-0.6l0.1,0.3l4.5,14.5h-2l-1.2-4h-4.5l-1.1,4H344.2z M348.9,188.4l-3.9,13.2h0.7
			l1.1-4h5.3l1.2,4h0.8l-4.2-13.5L348.9,188.4z M347,197.2l2.4-8.6l2.6,8.6H347z M349.4,190.6l-1.7,6h3.5L349.4,190.6z"/>
	</g>
	<g>
		<path class="st1" d="M369.7,191.5c0-0.7-0.2-3.3-2.5-3.3c-1.5,0-2.3,1.5-2.3,2.5c0,1.5,1.6,2.4,3,3.2c2.3,1.3,3.4,2.5,3.4,4.4
			c0,1.6-1,3.8-3.8,3.8c-2.6,0-4.1-1.7-4.4-4.6h1.3c0.1,1,0.5,3.4,3,3.4c1.7,0,2.6-1.3,2.6-2.6c0-1.8-1.5-2.6-2.9-3.4
			c-2.1-1.2-3.6-2.2-3.6-4.3c0-2,1.5-3.4,3.5-3.4c0.8,0,2.3,0.3,3.1,1.5c0.6,0.9,0.7,2.2,0.7,2.6L369.7,191.5z"/>
		<path class="st1" d="M367.5,202.4L367.5,202.4c-2.7,0-4.4-1.8-4.6-4.8l0-0.3h1.8l0,0.2c0.2,1.4,0.6,3.2,2.8,3.2
			c1.5,0,2.4-1.1,2.4-2.3c0-1.6-1.4-2.4-2.7-3.1c-2.1-1.2-3.7-2.3-3.7-4.5c0-2.1,1.6-3.6,3.7-3.6c0.5,0,2.3,0.1,3.3,1.6
			c0.7,1,0.8,2.4,0.8,2.8l0,0.3h-1.8l0-0.3c-0.1-2-0.9-3-2.2-3c-1.4,0-2,1.4-2,2.2c0,1.3,1.4,2.2,2.8,3l0.1,0
			c2.2,1.2,3.5,2.5,3.5,4.6C371.7,200.3,370.4,202.4,367.5,202.4z M363.5,197.8c0.3,2.6,1.7,4,4,4v0.3v-0.3c2.8,0,3.6-2.3,3.6-3.5
			c0-1.7-0.9-2.8-3.2-4.1l-0.1,0c-1.5-0.9-3.1-1.8-3.1-3.4c0-1.1,0.9-2.8,2.6-2.8c1.1,0,2.5,0.6,2.7,3.3h0.7c0-0.5-0.2-1.5-0.7-2.2
			c-0.9-1.2-2.4-1.3-2.9-1.3c-1.8,0-3.2,1.3-3.2,3.1c0,1.9,1.5,2.9,3.4,4c1.4,0.8,3,1.7,3,3.6c0,1.4-1,2.9-2.9,2.9
			c-1.8,0-2.9-1.1-3.3-3.4L363.5,197.8L363.5,197.8z"/>
	</g>
	<g>
		<path class="st1" d="M387.5,191.5c0-0.7-0.2-3.3-2.5-3.3c-1.5,0-2.3,1.5-2.3,2.5c0,1.5,1.6,2.4,3,3.2c2.3,1.3,3.4,2.5,3.4,4.4
			c0,1.6-1,3.8-3.8,3.8c-2.6,0-4.1-1.7-4.4-4.6h1.3c0.1,1,0.5,3.4,3,3.4c1.7,0,2.6-1.3,2.6-2.6c0-1.8-1.5-2.6-2.9-3.4
			c-2.1-1.2-3.6-2.2-3.6-4.3c0-2,1.5-3.4,3.5-3.4c0.8,0,2.3,0.3,3.1,1.5c0.6,0.9,0.7,2.2,0.7,2.6L387.5,191.5L387.5,191.5z"/>
		<path class="st1" d="M385.4,202.4v-0.3v-0.3c2.8,0,3.6-2.2,3.6-3.5c0-1.7-0.9-2.8-3.2-4.1l-0.1-0.1c-1.5-0.9-3.1-1.8-3.1-3.4
			c0-0.6,0.2-1.3,0.7-1.8c0.5-0.6,1.2-1,2-1c1.1,0,2.5,0.6,2.7,3.3h0.7c0-0.5-0.2-1.5-0.7-2.2c-0.9-1.2-2.4-1.3-2.9-1.3
			c-1.8,0-3.2,1.3-3.2,3.1c0,1.9,1.5,2.9,3.4,4c1.4,0.8,3,1.7,3,3.6c0,1.4-1,2.9-2.9,2.9c-1.8,0-2.9-1.1-3.3-3.4h-0.7
			c0.3,2.6,1.7,4,4,4L385.4,202.4c-2.7,0-4.4-1.8-4.6-4.8l0-0.3h1.8l0,0.2c0.2,1.4,0.6,3.2,2.7,3.2c1.5,0,2.4-1.1,2.4-2.3
			c0-1.6-1.4-2.4-2.7-3.1c-2.1-1.2-3.8-2.3-3.8-4.5c0-2.1,1.6-3.6,3.7-3.6c0.5,0,2.3,0.1,3.3,1.6c0.7,1,0.8,2.4,0.8,2.8l0,0.3h-1.8
			l0-0.3c-0.1-2-0.9-3-2.2-3c-0.8,0-1.2,0.4-1.5,0.8c-0.3,0.4-0.5,1-0.5,1.4c0,1.3,1.4,2.2,2.8,3l0.1,0.1c2.2,1.2,3.5,2.5,3.5,4.6
			C389.5,200.3,388.2,202.4,385.4,202.4z"/>
	</g>
	<g>
		<path class="st1" d="M399.5,190.6c0.5-1.4,1.6-3.1,4.1-3.1c4.3,0,4.5,4.9,4.5,7.4c0,2.1-0.1,7-4.5,7c-4.4,0-4.5-4.7-4.5-7.1
			C399.1,193.4,399.1,191.9,399.5,190.6z M401.2,199.7c0.4,0.7,1.3,1.4,2.4,1.4c3.1,0,3.1-4,3.1-6.4c0-2.3-0.1-6.4-3.1-6.4
			c-2.8,0-3.2,3.4-3.2,6.5C400.4,197.4,400.7,198.7,401.2,199.7z"/>
		<path class="st1" d="M403.6,202.2L403.6,202.2c-4.8,0-4.8-5.2-4.8-7.4c0-1.4,0-2.9,0.5-4.2c0.8-2.1,2.2-3.3,4.3-3.3
			c4.7,0,4.7,5.4,4.7,7.7C408.4,196.9,408.4,202.2,403.6,202.2z M403.6,187.8c-1.9,0-3.1,1-3.8,2.9c-0.4,1.3-0.4,2.7-0.4,4.1
			c0,3.4,0.5,6.9,4.2,6.9v0.3v-0.3c3.7,0,4.2-3.6,4.2-6.7C407.8,191.4,407.3,187.8,403.6,187.8z M403.6,201.4
			c-1.3,0-2.2-0.8-2.6-1.5c-0.6-1.1-0.8-2.5-0.8-5c0-2.9,0.4-6.8,3.5-6.8l0,0c3.4,0,3.4,4.8,3.4,6.6
			C407,196.9,407,201.4,403.6,201.4z M403.6,188.3v0.3c-2,0-2.9,2-2.9,6.2c0,2.4,0.2,3.8,0.7,4.8c0.3,0.6,1.2,1.2,2.1,1.2
			c2.5,0,2.9-2.9,2.9-6.1c0-2.8-0.3-6.1-2.8-6.1L403.6,188.3L403.6,188.3z"/>
	</g>
	<g>
		<path class="st1" d="M425.8,191.5c-0.2-1.1-0.7-3.4-3-3.4c-2.7,0-3.4,3.1-3.4,6.5c0,3.2,0.5,6.4,3.3,6.4c2.5,0,2.9-2.6,3.2-4h1.4
			c-0.3,1.9-1.2,4.8-4.5,4.8c-4.6,0-4.6-5.1-4.6-7c0-2.1,0-7.4,4.8-7.4c3.4,0,4.1,3.2,4.3,4.1H425.8z"/>
		<path class="st1" d="M422.6,202.2L422.6,202.2c-4.9,0-4.9-5.5-4.9-7.3c0-2.1,0-7.7,5-7.7c2.4,0,4,1.5,4.5,4.4l0.1,0.3l-0.3,0h-1.5
			l0-0.2c-0.2-1.4-0.8-3.2-2.8-3.2c-2.1,0-3.1,2.1-3.1,6.2c0,4.2,1,6.1,3,6.1c2,0,2.5-1.9,2.9-3.7l0-0.2l0.2-0.1h1.7l0,0.3
			C427,200.4,425.3,202.2,422.6,202.2z M422.8,187.7c-4.5,0-4.5,5-4.5,7.2c0,2.9,0.5,6.8,4.4,6.8c2.8,0,3.8-2.2,4.2-4.3h-0.8
			c-0.3,1.5-0.9,4-3.4,4c-3.2,0-3.6-3.8-3.6-6.7c0-4.5,1.2-6.8,3.7-6.8c2.5,0,3.1,2.4,3.3,3.4h0.7
			C426.4,190.1,425.7,187.7,422.8,187.7z"/>
	</g>
	<g>
		<path class="st1" d="M438.8,187.7v14.2h-1.3v-13.8L438.8,187.7z"/>
		<path class="st1" d="M439.1,202.2h-1.9v-14.3l1.9-0.5V202.2z M437.8,201.6h0.7v-13.5l-0.7,0.2V201.6z"/>
	</g>
	<g>
		<path class="st1" d="M453.7,187.7l4.4,14.2h-1.4l-1.2-4h-4.9l-1.1,4h-1.3l4.1-13.7L453.7,187.7z M455.2,196.9l-2.2-7.3l-2,7.3
			H455.2z"/>
		<path class="st1" d="M458.5,202.2h-2l-1.2-4h-4.5l-1.1,4h-1.9l4.2-14.2l1.8-0.6L458.5,202.2z M457,201.6h0.8l-4.2-13.5l-1,0.3
			l-3.9,13.2h0.7l1.1-4h5.3L457,201.6z M455.6,197.1h-5l0.1-0.4l2.3-8.2L455.6,197.1z M451.4,196.6h3.5l-1.8-6L451.4,196.6z"/>
	</g>
	<g>
		<path class="st1" d="M473.6,187.7v1.1h-3.4v13h-1.4v-13h-3.3v-1.1H473.6z"/>
		<path class="st1" d="M470.5,202.2h-1.9v-13h-3.3v-1.7h8.7v1.7h-3.4L470.5,202.2z M469.2,201.6h0.8v-13h3.4V188h-7.5v0.6h3.3
			L469.2,201.6z"/>
	</g>
	<g>
		<path class="st1" d="M484.8,187.7v14.2h-1.3v-13.8L484.8,187.7z"/>
		<path class="st1" d="M485.1,202.2h-1.9v-14.3l1.9-0.5V202.2z M483.8,201.6h0.7v-13.5l-0.7,0.2V201.6z"/>
	</g>
	<g>
		<path class="st1" d="M495.7,190.6c0.5-1.4,1.6-3.1,4.1-3.1c4.3,0,4.5,4.9,4.5,7.4c0,2.1-0.1,7-4.5,7c-4.4,0-4.5-4.7-4.5-7.1
			C495.2,193.3,495.2,191.9,495.7,190.6z M497.4,199.7c0.4,0.7,1.3,1.4,2.4,1.4c3.1,0,3.1-4,3.1-6.4c0-2.3-0.1-6.4-3.1-6.4
			c-2.8,0-3.2,3.3-3.2,6.5C496.6,197.3,496.9,198.7,497.4,199.7z"/>
		<path class="st1" d="M499.8,202.2L499.8,202.2c-4.8,0-4.8-5.2-4.8-7.4c0-1.4,0-2.9,0.5-4.2c0.8-2.2,2.2-3.3,4.3-3.3
			c4.7,0,4.7,5.4,4.7,7.7C504.5,196.9,504.5,202.1,499.8,202.2z M499.8,187.8c-1.9,0-3.1,1-3.8,2.9c-0.4,1.3-0.4,2.7-0.4,4.1
			c0,3.4,0.5,6.9,4.2,6.9c3.7,0,4.2-3.6,4.2-6.7C504,191.4,503.5,187.8,499.8,187.8z M499.8,201.3c-1.3,0-2.2-0.8-2.6-1.5
			c-0.6-1.1-0.8-2.5-0.8-5c0-2.9,0.4-6.8,3.5-6.8l0,0c3.4,0,3.4,4.8,3.4,6.6C503.2,196.8,503.2,201.3,499.8,201.3z M499.8,188.3v0.3
			c-2,0-2.9,2-2.9,6.2c0,2.4,0.2,3.8,0.7,4.8c0.3,0.6,1.2,1.2,2.1,1.2c2.5,0,2.8-2.9,2.8-6.1c0-2.8-0.3-6.1-2.8-6.1L499.8,188.3
			L499.8,188.3z"/>
	</g>
	<g>
		<path class="st1" d="M516.4,187.7l5,12.5v-12.6h1.2v14.2h-1.7l-4.9-12.1v12.1h-1.2v-13.7L516.4,187.7z"/>
		<path class="st1" d="M514.5,202.1V188l2-0.7l0.1,0.2l4.5,11.2v-11.4h1.8v14.7h-2.1l-0.1-0.2l-4.4-10.8v11L514.5,202.1z M515,188.4
			v13.2h0.7v-11.9l0.5-0.1l4.9,11.9h1.2V188h-0.6v12.3l-0.5,0.1l-4.9-12.3L515,188.4z"/>
	</g>
</g>
<g>
	<g class="st2">
		<g>
			<path class="st3" d="M160,36.8L70.2,49.4C58.9,51,49.7,59.7,49.7,68.7l-0.2,90.4c0,9.1,9.1,15.2,20.4,13.6l89.8-12.6
				c11.3-1.6,20.5-10.3,20.5-19.3l0.2-90.4C180.4,41.3,171.3,35.2,160,36.8"/>
			<path class="st0" d="M70,172.7c-11.3,1.6-20.4-4.5-20.4-13.6l0.2-90.4c0-9.1,9.2-17.7,20.5-19.3L160,36.8
				c11.3-1.6,20.4,4.5,20.4,13.6l-0.2,90.4c0,9.1-9.2,17.7-20.5,19.3L70,172.7 M160,32.9L70.2,45.6c-13.2,1.9-24,12.5-24,23.7
				L46,159.6c0,11.2,10.7,18.8,24,16.9l89.8-12.6c13.2-1.9,24-12.5,24-23.7l0.2-90.4C184,38.7,173.3,31.1,160,32.9"/>
		</g>
	</g>
</g>
<path class="st4" d="M154.3,168.4l-85.9,12.1c-14.9,2.1-27-6.9-26.9-20l0.2-86.4c0-2.4,0.4-4.8,1.2-7.2C33.7,70.5,27,78.4,27,86.7
	l-0.2,90.4c0,10.1,9.9,17,22.2,15.2l89.8-12.6c8.3-1.2,15.6-6,19.4-12.2C157,167.9,155.6,168.2,154.3,168.4z"/>
<g>
	<g class="st5">
		<g>
			<g class="st2">
				<g>
					<defs>
						<polygon id="SVGID_1_" points="112.4,162.2 112.6,49 113.5,48.9 113.3,162.1 						"/>
					</defs>
					<clipPath id="SVGID_00000179629325650992873420000008323975082253323711_">
						<use xlink:href="#SVGID_1_"  style="overflow:visible;"/>
					</clipPath>
					<g style="clip-path:url(#SVGID_00000179629325650992873420000008323975082253323711_);">
						<g>
							<g>
								<g>
									<polyline class="st0" points="113.5,48.9 112.6,49 112.4,162.2 113.3,162.1 113.5,48.9 									"/>
								</g>
							</g>
						</g>
					</g>
				</g>
			</g>
		</g>
	</g>
	<g class="st5">
		<g>
			<g class="st2">
				<g>
					<defs>
						<polygon id="SVGID_00000142889333496518009750000010629363710142845118_" points="152,156.6 152.2,45 153.1,44.8 152.9,156.4 
													"/>
					</defs>
					<clipPath id="SVGID_00000078731964606734402130000004016521408629161389_">
						<use xlink:href="#SVGID_00000142889333496518009750000010629363710142845118_"  style="overflow:visible;"/>
					</clipPath>
					<g style="clip-path:url(#SVGID_00000078731964606734402130000004016521408629161389_);">
						<g>
							<g>
								<g>
									<polyline class="st0" points="153.1,44.8 152.2,45 152,156.6 152.9,156.4 153.1,44.8 									"/>
								</g>
							</g>
						</g>
					</g>
				</g>
			</g>
		</g>
	</g>
	<g class="st5">
		<g>
			<g class="st2">
				<g>
					<defs>
						<polygon id="SVGID_00000142876738324635600860000000729356261612228496_" points="70.5,164.6 70.7,53 71.6,52.9 71.4,164.5 
													"/>
					</defs>
					<clipPath id="SVGID_00000147923271256235528880000008110288997548347014_">
						<use xlink:href="#SVGID_00000142876738324635600860000000729356261612228496_"  style="overflow:visible;"/>
					</clipPath>
					<g style="clip-path:url(#SVGID_00000147923271256235528880000008110288997548347014_);">
						<g>
							<g>
								<g>
									<polyline class="st0" points="71.6,52.9 70.7,53 70.5,164.6 71.4,164.5 71.6,52.9 									"/>
								</g>
							</g>
						</g>
					</g>
				</g>
			</g>
		</g>
	</g>
	<g>
		<g>
			<g class="st2">
				<g>
					<defs>
						<polygon id="SVGID_00000135667946508660360380000015411826519462386579_" points="138.1,84.5 138.1,68.2 172.6,63.3 
							172.6,79.6 						"/>
					</defs>
					<clipPath id="SVGID_00000019666122449789674380000013732042844139013549_">
						<use xlink:href="#SVGID_00000135667946508660360380000015411826519462386579_"  style="overflow:visible;"/>
					</clipPath>
					<g style="clip-path:url(#SVGID_00000019666122449789674380000013732042844139013549_);">
						<g>
							<g>
								<g>
									<path class="st0" d="M165,78.8C165,78.8,165,78.8,165,78.8l-8.9,1.2l0.1-12.5l8.9-1.2c3.2-0.4,5.8,2,5.8,5.5
										C170.8,75.2,168.2,78.4,165,78.8 M145.6,67.1c-4.1,0.6-7.5,4.7-7.6,9.2c0,4.5,3.3,7.7,7.5,7.1l19.4-2.7c0,0,0,0,0,0
										c4.1-0.6,7.5-4.7,7.5-9.2c0-4.5-3.3-7.7-7.5-7.1L145.6,67.1C145.7,67.1,145.6,67.1,145.6,67.1"/>
								</g>
							</g>
						</g>
					</g>
				</g>
			</g>
		</g>
	</g>
	<g>
		<g>
			<g class="st2">
				<g>
					<defs>
						<polygon id="SVGID_00000088115968853391167110000002820079878071448452_" points="138.1,115.2 138.1,98.9 172.6,94.1 
							172.6,110.4 						"/>
					</defs>
					<clipPath id="SVGID_00000133490249343238172600000010483639375755005828_">
						<use xlink:href="#SVGID_00000088115968853391167110000002820079878071448452_"  style="overflow:visible;"/>
					</clipPath>
					<g style="clip-path:url(#SVGID_00000133490249343238172600000010483639375755005828_);">
						<g>
							<g>
								<g>
									<path class="st11" d="M165.1,109.6C165.1,109.6,165,109.6,165.1,109.6l-8.9,1.2l0.1-12.5l8.9-1.2c3.2-0.4,5.8,2,5.8,5.5
										C170.8,105.9,168.2,109.1,165.1,109.6 M145.6,97.8c-4.1,0.6-7.5,4.7-7.5,9.1c0,4.5,3.3,7.7,7.5,7.1l19.4-2.7c0,0,0,0,0,0
										c4.1-0.6,7.5-4.7,7.5-9.2c0-4.5-3.3-7.7-7.5-7.1L145.6,97.8C145.6,97.8,145.6,97.8,145.6,97.8"/>
								</g>
							</g>
						</g>
					</g>
				</g>
			</g>
		</g>
	</g>
	<g>
		<g>
			<g class="st2">
				<g>
					<defs>
						<polygon id="SVGID_00000074440803566355178270000006213910127880629402_" points="138.1,146.2 138.1,129.9 172.6,125 
							172.6,141.3 						"/>
					</defs>
					<clipPath id="SVGID_00000111874397857951676730000008787623273160040844_">
						<use xlink:href="#SVGID_00000074440803566355178270000006213910127880629402_"  style="overflow:visible;"/>
					</clipPath>
					<g style="clip-path:url(#SVGID_00000111874397857951676730000008787623273160040844_);">
						<g>
							<g>
								<g>
									<path class="st11" d="M165.1,140.5C165,140.5,165,140.5,165.1,140.5l-8.9,1.2l0.1-12.5l8.9-1.2c3.2-0.4,5.8,2,5.8,5.5
										C170.8,136.9,168.2,140.1,165.1,140.5 M145.6,128.8c-4.1,0.6-7.5,4.7-7.5,9.1c0,4.5,3.3,7.7,7.5,7.1l19.4-2.7c0,0,0,0,0,0
										c4.1-0.6,7.5-4.7,7.5-9.1c0-4.5-3.3-7.7-7.5-7.1L145.6,128.8C145.6,128.8,145.6,128.8,145.6,128.8"/>
								</g>
							</g>
						</g>
					</g>
				</g>
			</g>
		</g>
	</g>
	<g>
		<g>
			<g class="st2">
				<g>
					<defs>
						<polygon id="SVGID_00000075847684811262411180000016524249906542950317_" points="97.9,72.5 97.9,56.2 132.4,51.4 132.4,67.7 
													"/>
					</defs>
					<clipPath id="SVGID_00000016773673726978846220000004230117046121145013_">
						<use xlink:href="#SVGID_00000075847684811262411180000016524249906542950317_"  style="overflow:visible;"/>
					</clipPath>
					<g style="clip-path:url(#SVGID_00000016773673726978846220000004230117046121145013_);">
						<g>
							<g>
								<g>
									<path class="st11" d="M124.9,66.9C124.9,66.9,124.9,66.9,124.9,66.9l-8.9,1.2l0.1-12.5l8.9-1.2c3.2-0.4,5.8,2,5.8,5.5
										C130.7,63.3,128.1,66.4,124.9,66.9 M105.5,55.2c-4.1,0.6-7.5,4.7-7.6,9.1c0,4.5,3.3,7.7,7.5,7.1l19.4-2.7c0,0,0,0,0,0
										c4.1-0.6,7.5-4.7,7.5-9.2c0-4.5-3.3-7.7-7.5-7.1L105.5,55.2C105.5,55.2,105.5,55.2,105.5,55.2"/>
								</g>
							</g>
						</g>
					</g>
				</g>
			</g>
		</g>
	</g>
	<g>
		<g>
			<g class="st2">
				<g>
					<defs>
						<polygon id="SVGID_00000139262046093102451780000018134900079252708019_" points="97.9,100.1 97.9,83.7 132.4,78.9 
							132.4,95.2 						"/>
					</defs>
					<clipPath id="SVGID_00000163058507681467146460000007244070409215777691_">
						<use xlink:href="#SVGID_00000139262046093102451780000018134900079252708019_"  style="overflow:visible;"/>
					</clipPath>
					<g style="clip-path:url(#SVGID_00000163058507681467146460000007244070409215777691_);">
						<g>
							<g>
								<g>
									<path class="st11" d="M124.9,94.4C124.9,94.4,124.9,94.4,124.9,94.4l-8.9,1.2l0.1-12.5l8.9-1.2c3.2-0.4,5.8,2,5.8,5.5
										C130.7,90.8,128.1,93.9,124.9,94.4 M105.5,82.7c-4.1,0.6-7.5,4.7-7.6,9.1c0,4.5,3.3,7.7,7.5,7.1l19.4-2.7c0,0,0,0,0,0
										c4.1-0.6,7.5-4.7,7.5-9.2s-3.3-7.7-7.5-7.1L105.5,82.7C105.5,82.7,105.5,82.7,105.5,82.7"/>
								</g>
							</g>
						</g>
					</g>
				</g>
			</g>
		</g>
	</g>
	<g>
		<g>
			<g class="st2">
				<g>
					<defs>
						<polygon id="SVGID_00000142893539062684988390000017826609667737085363_" points="98.7,129.9 98.8,113.6 133.2,108.7 
							133.2,125 						"/>
					</defs>
					<clipPath id="SVGID_00000042715810422244499820000005425496987586607010_">
						<use xlink:href="#SVGID_00000142893539062684988390000017826609667737085363_"  style="overflow:visible;"/>
					</clipPath>
					<g style="clip-path:url(#SVGID_00000042715810422244499820000005425496987586607010_);">
						<g>
							<g>
								<g>
									<path class="st11" d="M125.7,124.2C125.7,124.2,125.7,124.2,125.7,124.2l-8.9,1.2l0.1-12.5l8.9-1.2c3.2-0.4,5.8,2,5.8,5.5
										C131.5,120.6,128.9,123.8,125.7,124.2 M106.3,112.5c-4.1,0.6-7.5,4.7-7.6,9.2c0,4.5,3.3,7.7,7.5,7.1l19.4-2.7c0,0,0,0,0,0
										c4.1-0.6,7.5-4.7,7.5-9.2c0-4.5-3.3-7.7-7.5-7.1L106.3,112.5C106.3,112.5,106.3,112.5,106.3,112.5"/>
								</g>
							</g>
						</g>
					</g>
				</g>
			</g>
		</g>
	</g>
	<g>
		<g>
			<g class="st2">
				<g>
					<defs>
						<polygon id="SVGID_00000038405903825428869630000003405252732427724949_" points="97.9,157 97.9,140.6 132.4,135.8 
							132.4,152.1 						"/>
					</defs>
					<clipPath id="SVGID_00000180329384592455908670000005388302827920461193_">
						<use xlink:href="#SVGID_00000038405903825428869630000003405252732427724949_"  style="overflow:visible;"/>
					</clipPath>
					<g style="clip-path:url(#SVGID_00000180329384592455908670000005388302827920461193_);">
						<g>
							<g>
								<g>
									<path class="st0" d="M124.9,151.3C124.9,151.3,124.9,151.3,124.9,151.3l-8.9,1.2l0.1-12.5l8.9-1.2c3.2-0.4,5.8,2,5.8,5.5
										C130.7,147.7,128.1,150.9,124.9,151.3 M105.4,139.6c-4.1,0.6-7.5,4.7-7.5,9.1c0,4.5,3.3,7.7,7.5,7.1l19.4-2.7c0,0,0,0,0,0
										c4.1-0.6,7.5-4.7,7.5-9.1c0-4.5-3.3-7.7-7.5-7.1L105.4,139.6C105.5,139.6,105.5,139.6,105.4,139.6"/>
								</g>
							</g>
						</g>
					</g>
				</g>
			</g>
		</g>
	</g>
	<g>
		<g>
			<g class="st2">
				<g>
					<defs>
						<polygon id="SVGID_00000127014450662010252460000012527048297147116462_" points="57.2,77.2 57.3,60.9 91.8,56 91.7,72.4 
													"/>
					</defs>
					<clipPath id="SVGID_00000108999792314821755490000015813274787401045390_">
						<use xlink:href="#SVGID_00000127014450662010252460000012527048297147116462_"  style="overflow:visible;"/>
					</clipPath>
					<g style="clip-path:url(#SVGID_00000108999792314821755490000015813274787401045390_);">
						<g>
							<g>
								<g>
									<path class="st0" d="M84.2,71.6C84.2,71.6,84.2,71.6,84.2,71.6l-8.9,1.2l0.1-12.5l8.9-1.2c3.2-0.4,5.8,2,5.8,5.5
										C90,67.9,87.4,71.1,84.2,71.6 M64.8,59.8c-4.1,0.6-7.5,4.7-7.5,9.2c0,4.5,3.3,7.7,7.5,7.1l19.4-2.7c0,0,0,0,0,0
										c4.1-0.6,7.5-4.7,7.5-9.2s-3.3-7.7-7.5-7.1L64.8,59.8C64.8,59.8,64.8,59.8,64.8,59.8"/>
								</g>
							</g>
						</g>
					</g>
				</g>
			</g>
		</g>
	</g>
	<g>
		<g>
			<g class="st2">
				<g>
					<defs>
						<polygon id="SVGID_00000080923369479646218010000005113534386258599599_" points="57.2,117.6 57.3,101.3 91.8,96.5 
							91.7,112.8 						"/>
					</defs>
					<clipPath id="SVGID_00000064311641594137560840000017778171180541314946_">
						<use xlink:href="#SVGID_00000080923369479646218010000005113534386258599599_"  style="overflow:visible;"/>
					</clipPath>
					<g style="clip-path:url(#SVGID_00000064311641594137560840000017778171180541314946_);">
						<g>
							<g>
								<g>
									<path class="st11" d="M84.2,112C84.2,112,84.2,112,84.2,112l-8.9,1.2l0.1-12.5l8.9-1.2c3.2-0.4,5.8,2,5.8,5.5
										C90,108.4,87.4,111.5,84.2,112 M64.8,100.3c-4.1,0.6-7.5,4.7-7.5,9.2c0,4.5,3.3,7.7,7.5,7.1l19.4-2.7c0,0,0,0,0,0
										c4.1-0.6,7.5-4.7,7.5-9.2s-3.3-7.7-7.5-7.1L64.8,100.3C64.8,100.3,64.8,100.3,64.8,100.3"/>
								</g>
							</g>
						</g>
					</g>
				</g>
			</g>
		</g>
	</g>
	<g>
		<g>
			<g class="st2">
				<g>
					<defs>
						<polygon id="SVGID_00000051357921089166435290000003679731072501395584_" points="57.2,160.4 57.3,144 91.8,139.2 91.7,155.5 
													"/>
					</defs>
					<clipPath id="SVGID_00000035510232241054131990000004096354939634953113_">
						<use xlink:href="#SVGID_00000051357921089166435290000003679731072501395584_"  style="overflow:visible;"/>
					</clipPath>
					<g style="clip-path:url(#SVGID_00000035510232241054131990000004096354939634953113_);">
						<g>
							<g>
								<g>
									<path class="st11" d="M84.2,154.7C84.2,154.7,84.2,154.7,84.2,154.7l-8.9,1.2l0.1-12.5l8.9-1.2c3.2-0.4,5.8,2,5.8,5.5
										C90,151.1,87.4,154.2,84.2,154.7 M64.8,143c-4.1,0.6-7.5,4.7-7.5,9.1c0,4.5,3.3,7.7,7.5,7.1l19.4-2.6c0,0,0,0,0,0
										c4.1-0.6,7.5-4.7,7.5-9.1c0-4.5-3.3-7.7-7.5-7.1L64.8,143C64.8,143,64.8,143,64.8,143"/>
								</g>
							</g>
						</g>
					</g>
				</g>
			</g>
		</g>
	</g>
</g>
</svg>
