<?xml version="1.0" encoding="utf-8"?>
<!-- Generator: Adobe Illustrator 28.1.0, SVG Export Plug-In . SVG Version: 6.00 Build 0)  -->
<svg version="1.1" id="Layer_1" xmlns="http://www.w3.org/2000/svg" xmlns:xlink="http://www.w3.org/1999/xlink" x="0px" y="0px"
	 viewBox="0 0 474.4 117.7" style="enable-background:new 0 0 474.4 117.7;" xml:space="preserve">
<style type="text/css">
	.st0{fill:#636569;}
	.st1{fill:#BD2F2C;}
	
		.st2{clip-path:url(#SVGID_00000103981103015632506530000007257263787474824358_);fill:url(#SVGID_00000178181297569211585200000012124516923092883587_);}
</style>
<g>
	<g>
		<polygon class="st0" points="138.5,80.9 148.7,80.9 148.7,83.1 140.9,83.1 140.9,86.8 147.8,86.8 147.8,89 140.9,89 140.9,94.5 
			138.5,94.5 		"/>
		<g>
			<path class="st0" d="M164.2,87.7L164.2,87.7c0-2.7-1.9-4.9-4.6-4.9c-2.7,0-4.6,2.2-4.6,4.8v0c0,2.6,1.9,4.8,4.6,4.8
				C162.3,92.5,164.2,90.4,164.2,87.7 M152.5,87.7L152.5,87.7c0-3.9,3-7.1,7.1-7.1s7.1,3.2,7.1,7v0c0,3.8-3,7-7.1,7
				C155.4,94.7,152.5,91.6,152.5,87.7"/>
			<path class="st0" d="M177.4,87.7c1.7,0,2.8-0.9,2.8-2.3v0c0-1.5-1-2.3-2.8-2.3h-3.5v4.6H177.4z M171.6,80.9h6.1
				c1.7,0,3.1,0.5,3.9,1.4c0.7,0.7,1.1,1.7,1.1,2.9v0c0,2.2-1.3,3.6-3.2,4.1l3.7,5.2h-2.8l-3.3-4.7h0h-3v4.7h-2.4V80.9z"/>
		</g>
		<polygon class="st0" points="187.5,80.9 197.6,80.9 197.6,83 189.9,83 189.9,86.6 196.8,86.6 196.8,88.7 189.9,88.7 189.9,92.4 
			197.7,92.4 197.7,94.5 187.5,94.5 		"/>
		<g>
			<path class="st0" d="M201.9,87.7L201.9,87.7c0-3.9,2.9-7.1,7-7.1c2.5,0,4,0.9,5.3,2.1l-1.5,1.8c-1.1-1-2.3-1.7-3.8-1.7
				c-2.6,0-4.5,2.1-4.5,4.8v0c0,2.7,1.9,4.8,4.5,4.8c1.7,0,2.7-0.7,3.9-1.8l1.5,1.6c-1.4,1.5-3,2.4-5.5,2.4
				C204.9,94.7,201.9,91.7,201.9,87.7"/>
		</g>
		<path class="st0" d="M227,89.1l-2.4-5.4l-2.3,5.4H227z M223.6,80.8h2.2l6,13.7h-2.5l-1.4-3.3h-6.4l-1.4,3.3h-2.4L223.6,80.8z"/>
		<g>
			<path class="st0" d="M234.9,92.5l1.4-1.7c1.3,1.1,2.6,1.8,4.3,1.8c1.5,0,2.4-0.7,2.4-1.7v0c0-1-0.5-1.5-3.1-2.1
				c-2.9-0.7-4.5-1.6-4.5-4.1v0c0-2.3,1.9-3.9,4.6-3.9c2,0,3.6,0.6,4.9,1.7l-1.3,1.8c-1.2-0.9-2.4-1.4-3.7-1.4
				c-1.4,0-2.2,0.7-2.2,1.6v0c0,1,0.6,1.5,3.2,2.1c2.9,0.7,4.4,1.7,4.4,4v0c0,2.5-2,4.1-4.9,4.1C238.5,94.7,236.6,94,234.9,92.5"/>
		</g>
		<polygon class="st0" points="253.3,83.1 249,83.1 249,80.9 260,80.9 260,83.1 255.7,83.1 255.7,94.5 253.3,94.5 		"/>
		<rect x="264.6" y="80.9" class="st0" width="2.4" height="13.6"/>
		<polygon class="st0" points="272.6,80.9 274.8,80.9 282.1,90.3 282.1,80.9 284.4,80.9 284.4,94.5 282.4,94.5 274.9,84.8 
			274.9,94.5 272.6,94.5 		"/>
		<g>
			<path class="st0" d="M289.3,87.7L289.3,87.7c0-3.8,2.9-7.1,7-7.1c2.4,0,3.8,0.7,5.2,1.8l-1.5,1.8c-1-0.9-2.1-1.5-3.8-1.5
				c-2.5,0-4.4,2.2-4.4,4.8v0c0,2.8,1.8,4.9,4.6,4.9c1.3,0,2.4-0.4,3.3-1V89h-3.5v-2.1h5.8v5.7c-1.3,1.1-3.3,2.1-5.7,2.1
				C292.1,94.7,289.3,91.7,289.3,87.7"/>
			<path class="st0" d="M314.2,87.7L314.2,87.7c0-3.9,2.9-7.1,7-7.1c2.5,0,4,0.9,5.3,2.1l-1.5,1.8c-1.1-1-2.3-1.7-3.8-1.7
				c-2.6,0-4.5,2.1-4.5,4.8v0c0,2.7,1.9,4.8,4.5,4.8c1.7,0,2.7-0.7,3.9-1.8l1.5,1.6c-1.4,1.5-3,2.4-5.5,2.4
				C317.2,94.7,314.2,91.7,314.2,87.7"/>
			<path class="st0" d="M341.8,87.7L341.8,87.7c0-2.7-1.9-4.9-4.6-4.9c-2.7,0-4.6,2.2-4.6,4.8v0c0,2.6,1.9,4.8,4.6,4.8
				C339.9,92.5,341.8,90.4,341.8,87.7 M330.1,87.7L330.1,87.7c0-3.9,3-7.1,7.1-7.1c4.2,0,7.1,3.2,7.1,7v0c0,3.8-3,7-7.1,7
				C333,94.7,330.1,91.6,330.1,87.7"/>
		</g>
		<polygon class="st0" points="349.2,80.9 351.4,80.9 358.7,90.3 358.7,80.9 361,80.9 361,94.5 359,94.5 351.5,84.8 351.5,94.5 
			349.2,94.5 		"/>
		<polygon class="st0" points="366.4,80.9 376.6,80.9 376.6,83.1 368.8,83.1 368.8,86.8 375.7,86.8 375.7,89 368.8,89 368.8,94.5 
			366.4,94.5 		"/>
		<rect x="381.3" y="80.9" class="st0" width="2.4" height="13.6"/>
		<g>
			<path class="st0" d="M394.3,92.3c2.9,0,4.7-1.9,4.7-4.6v0c0-2.7-1.9-4.6-4.7-4.6h-2.7v9.3H394.3z M389.2,80.9h5.1
				c4.3,0,7.2,2.9,7.2,6.8v0c0,3.8-3,6.8-7.2,6.8h-5.1V80.9z"/>
		</g>
		<polygon class="st0" points="406.4,80.9 416.5,80.9 416.5,83 408.8,83 408.8,86.6 415.6,86.6 415.6,88.7 408.8,88.7 408.8,92.4 
			416.6,92.4 416.6,94.5 406.4,94.5 		"/>
		<polygon class="st0" points="421.3,80.9 423.5,80.9 430.8,90.3 430.8,80.9 433.2,80.9 433.2,94.5 431.2,94.5 423.7,84.8 
			423.7,94.5 421.3,94.5 		"/>
		<g>
			<path class="st0" d="M438,87.7L438,87.7c0-3.9,2.9-7.1,7-7.1c2.5,0,4,0.9,5.3,2.1l-1.5,1.8c-1.1-1-2.3-1.7-3.8-1.7
				c-2.6,0-4.5,2.1-4.5,4.8v0c0,2.7,1.9,4.8,4.5,4.8c1.7,0,2.7-0.7,3.9-1.8l1.5,1.6c-1.4,1.5-3,2.4-5.5,2.4
				C441,94.7,438,91.7,438,87.7"/>
		</g>
		<polygon class="st0" points="454.9,80.9 465,80.9 465,83 457.3,83 457.3,86.6 464.1,86.6 464.1,88.7 457.3,88.7 457.3,92.4 
			465.1,92.4 465.1,94.5 454.9,94.5 		"/>
	</g>
	<g>
		<polygon class="st1" points="141.7,54 129.9,23.8 122.3,23.8 138.6,63.3 144.7,63.3 161,23.8 153.5,23.8 		"/>
		<rect x="176.5" y="23.8" class="st1" width="6.9" height="39.3"/>
		<g>
			<path class="st1" d="M217.4,40.3c-7.5-1.8-9.3-3.1-9.3-6.2V34c0-2.6,2.4-4.7,6.4-4.7c3.6,0,7.1,1.4,10.7,4l3.7-5.2
				c-4-3.2-8.5-4.9-14.2-4.9c-7.8,0-13.4,4.7-13.4,11.4v0.1c0,7.2,4.7,9.7,13.1,11.7c7.3,1.7,8.9,3.2,8.9,6v0.1c0,3-2.7,4.9-7,4.9
				c-4.9,0-8.6-1.9-12.4-5.1l-4.1,4.9c4.7,4.2,10.4,6.3,16.4,6.3c8.2,0,14-4.4,14-11.7v-0.1C230,45.3,225.7,42.3,217.4,40.3"/>
			<path class="st1" d="M264.9,57.4c-7.5,0-13-6.3-13-14v-0.1c0-7.7,5.4-13.9,13-13.9c4.5,0,7.9,2,11,4.9l4.4-5.1
				c-3.8-3.6-8.1-6.1-15.4-6.1c-11.9,0-20.2,9.1-20.2,20.3v0.1c0,11.3,8.5,20.2,20,20.2c7.3,0,11.8-2.7,15.9-7l-4.4-4.5
				C272.8,55.4,269.8,57.4,264.9,57.4"/>
		</g>
		<path class="st1" d="M306.5,47.5l6.7-15.7l6.8,15.7H306.5z M310.1,23.5L292.8,63h7.1l4-9.5h18.6l4,9.5h7.3l-17.3-39.5H310.1z"/>
		<g>
			<path class="st1" d="M377.1,43.5c0,7.7-5.4,13.2-13.6,13.2h-7.7V30.1h7.7c8.2,0,13.6,5.7,13.6,13.3V43.5z M363.5,23.8h-14.6V63
				h14.6c12.3,0,20.9-8.6,20.9-19.6v-0.1C384.4,32.3,375.8,23.8,363.5,23.8"/>
		</g>
		<rect x="401.4" y="23.8" class="st1" width="6.9" height="39.3"/>
		<path class="st1" d="M437.5,47.5l6.7-15.7l6.8,15.7H437.5z M447.5,23.5h-6.4L423.9,63h7.1l4-9.5h18.6l4,9.5h7.3L447.5,23.5z"/>
		<g>
			<path class="st1" d="M467.9,26.6v1.4h0.8c0.4,0,0.6,0,0.8-0.1c0.2-0.1,0.3-0.3,0.3-0.6c0-0.2-0.1-0.4-0.3-0.5
				c-0.2-0.1-0.4-0.2-0.8-0.2H467.9z M467.9,30.8h-1v-5h2.4c0.4,0,0.7,0.1,0.9,0.2c0.3,0.1,0.4,0.3,0.6,0.5c0.1,0.2,0.2,0.5,0.2,0.7
				c0,0.4-0.1,0.7-0.4,0.9c-0.2,0.3-0.6,0.4-1,0.5c0.2,0.1,0.4,0.2,0.5,0.4c0.1,0.2,0.3,0.4,0.5,0.8l0.6,1H470l-0.4-0.8
				c-0.2-0.4-0.4-0.6-0.5-0.8c-0.1-0.2-0.3-0.3-0.4-0.4c-0.1-0.1-0.3-0.1-0.5-0.1h-0.3V30.8z M469.1,24.5c-0.7,0-1.3,0.2-1.9,0.5
				c-0.6,0.3-1,0.8-1.4,1.4c-0.3,0.6-0.5,1.2-0.5,1.9c0,0.7,0.2,1.3,0.5,1.9c0.3,0.6,0.8,1,1.4,1.4c0.6,0.3,1.2,0.5,1.9,0.5
				c0.7,0,1.3-0.2,1.9-0.5c0.6-0.3,1-0.8,1.4-1.4c0.3-0.6,0.5-1.2,0.5-1.9c0-0.7-0.2-1.3-0.5-1.9c-0.3-0.6-0.8-1-1.4-1.4
				C470.4,24.6,469.8,24.5,469.1,24.5 M469.1,23.5c0.6,0,1.3,0.1,1.8,0.4c0.6,0.2,1.1,0.6,1.5,1c0.4,0.4,0.8,0.9,1,1.5
				c0.2,0.6,0.4,1.2,0.4,1.8c0,0.9-0.2,1.6-0.6,2.4c-0.4,0.7-1,1.3-1.7,1.7c-0.7,0.4-1.5,0.6-2.4,0.6c-0.9,0-1.6-0.2-2.4-0.6
				c-0.7-0.4-1.3-1-1.7-1.7c-0.4-0.7-0.6-1.5-0.6-2.4c0-0.9,0.2-1.6,0.6-2.4c0.4-0.7,1-1.3,1.7-1.7
				C467.4,23.8,468.2,23.5,469.1,23.5"/>
		</g>
	</g>
	<g>
		<defs>
			<path id="SVGID_1_" d="M80,114.9L80,114.9L80,114.9L80,114.9L80,114.9z M61.1,64.2l20.4,52.6l-1.4-1.9l1.5,2.6l15-93.7L61.1,64.2
				z M0.6,8.4L80,114.9L54.7,71.5l6.4-7.3l-14-36.1L0.6,8.4z"/>
		</defs>
		<clipPath id="SVGID_00000080193236162841446180000006568570329793343149_">
			<use xlink:href="#SVGID_1_"  style="overflow:visible;"/>
		</clipPath>
		
			<linearGradient id="SVGID_00000173126336185850283600000013511819600825639345_" gradientUnits="userSpaceOnUse" x1="-890.236" y1="358.4321" x2="-889.236" y2="358.4321" gradientTransform="matrix(95.9724 0 0 -95.9724 85438.6719 34462.5039)">
			<stop  offset="0" style="stop-color:#636569"/>
			<stop  offset="1" style="stop-color:#C0C5C8"/>
		</linearGradient>
		
			<rect x="0.6" y="8.4" style="clip-path:url(#SVGID_00000080193236162841446180000006568570329793343149_);fill:url(#SVGID_00000173126336185850283600000013511819600825639345_);" width="96" height="109.1"/>
	</g>
	<polygon class="st1" points="49.4,0.3 65.1,46.8 68.2,9.4 	"/>
</g>
</svg>
